<svg width="506.667" height="306.196" xmlns="http://www.w3.org/2000/svg"><defs><clipPath clipPathUnits="userSpaceOnUse" id="a"><path d="M0 3318h3318V0H0z" transform="translate(-506.126 -2304.246)"/></clipPath></defs><path d="M0 0c-15.225 0-27.611-12.386-27.611-27.61 0-4.344.986-8.507 2.93-12.374a10 10 0 0 0-8.54-14.484c-26.862-1.061-47.904-23.008-47.904-49.964 0-27.393 22.332-49.826 49.782-50.006l240.801.004c27.204.269 49.417 22.7 49.417 50.002 0 27.579-22.438 50.017-50.017 50.017-1.028 0-2.145-.044-3.516-.14a10.002 10.002 0 0 0-10.672 9.336c-2.893 45.1-40.598 80.428-85.84 80.428-30.34 0-57.859-15.508-73.614-41.485a10 10 0 0 0-15.64-1.867C14.354-2.892 7.401 0 0 0m-31.409-174.438c-38.471.253-69.716 31.658-69.716 70.006 0 33.324 22.986 61.18 54.278 68.263a47.858 47.858 0 0 0-.764 8.559C-47.611-1.358-26.253 20 0 20c8.72 0 17.078-2.327 24.37-6.688 19.981 26.423 50.812 41.897 84.46 41.897 52.588 0 96.916-38.738 104.78-89.784 36.399-2.452 65.265-32.847 65.265-69.857 0-38.222-31.096-69.625-69.318-70.001z" style="fill:#fff;fill-opacity:1;fill-rule:nonzero;stroke:none" transform="matrix(1.33333 0 0 -1.33333 134.833 73.612)" clip-path="url(#a)"/></svg>
