<svg width="591.607" height="482.535" xmlns="http://www.w3.org/2000/svg"><defs><clipPath clipPathUnits="userSpaceOnUse" id="a"><path d="M0 3318h3318V0H0z" transform="translate(-2108.375 -2240.439)"/></clipPath><clipPath clipPathUnits="userSpaceOnUse" id="b"><path d="M0 3318h3318V0H0z" transform="translate(-2376.24 -2190.833)"/></clipPath></defs><path d="M0 0c-15.225 0-27.61-12.386-27.61-27.61 0-4.343.986-8.506 2.93-12.374a10 10 0 0 0-8.54-14.484c-26.862-1.061-47.905-23.008-47.905-49.964 0-27.393 22.332-49.826 49.782-50.006l240.801.004c27.204.269 49.417 22.7 49.417 50.002 0 27.579-22.438 50.017-50.017 50.017-1.027 0-2.144-.044-3.514-.14a9.997 9.997 0 0 0-10.673 9.336c-2.894 45.1-40.6 80.428-85.841 80.428-30.339 0-57.858-15.508-73.614-41.486a10.002 10.002 0 0 0-15.641-1.866C14.354-2.892 7.401 0 0 0m-31.408-174.438c-38.472.253-69.717 31.658-69.717 70.006 0 33.324 22.986 61.18 54.279 68.262a47.886 47.886 0 0 0-.764 8.56C-47.61-1.358-26.252 20 0 20c8.721 0 17.078-2.327 24.37-6.688 19.982 26.423 50.813 41.897 84.46 41.897 52.588 0 96.916-38.738 104.781-89.784 36.399-2.452 65.264-32.847 65.264-69.857 0-38.222-31.096-69.625-69.318-70.001z" style="fill:#fff;fill-opacity:1;fill-rule:nonzero;stroke:none" transform="matrix(1.33333 0 0 -1.33333 134.833 249.95)" clip-path="url(#a)"/><path d="M0 0c-4.533 0-8.639 3.104-9.725 7.708-1.267 5.375 2.063 10.76 7.439 12.027C16.052 24.06 32.669 33.472 45.8 46.774 22.857 52.228 1.951 64.372-14.351 81.957c-20.621 22.244-31.977 51.208-31.977 81.557 0 18.658 4.249 36.754 12.402 53.192-23.005-1.954-44.47-11.725-61.18-28.006-18.743-18.26-29.461-42.697-30.183-68.809-.153-5.521-4.738-9.911-10.273-9.72-5.52.152-9.872 4.751-9.719 10.272.866 31.343 13.728 60.671 36.218 82.582 22.532 21.954 52.27 34.044 83.735 34.044 3.206 0 6.49-.133 9.759-.396a10.002 10.002 0 0 0 8.251-5.719 10.003 10.003 0 0 0-.872-10c-11.867-16.878-18.138-36.74-18.138-57.44 0-25.291 9.463-49.426 26.644-67.96 17.091-18.436 40.247-29.697 65.203-31.708a10.001 10.001 0 0 0 7.377-15.719C55.932 24 30.861 7.003 2.304.27A9.978 9.978 0 0 0 0 0" style="fill:#DAEEF2;fill-opacity:1;fill-rule:nonzero;stroke:none" transform="matrix(1.33333 0 0 -1.33333 491.987 316.092)" clip-path="url(#b)"/></svg>
