<svg width="293.391" height="320" xmlns="http://www.w3.org/2000/svg"><defs><clipPath clipPathUnits="userSpaceOnUse" id="a"><path d="M0 3318h3318V0H0z" transform="translate(-1667.313 -1123.536)"/></clipPath></defs><path d="M0 0c-51.128-4.377-91.401-47.392-91.401-99.634 0-55.14 44.86-100 100-100 26.891 0 52.468 10.876 71.112 29.708-22.935 5.456-43.836 17.599-60.134 35.179-20.621 22.244-31.978 51.208-31.978 81.558C-12.401-34.531-8.153-16.437 0 0m8.599-219.634c-66.168 0-120 53.832-120 120s53.832 120 120 120c3.206 0 6.49-.134 9.761-.397a10.003 10.003 0 0 0 7.377-15.72C13.871-12.627 7.599-32.489 7.599-53.189c0-25.291 9.463-49.426 26.645-67.96 17.089-18.436 40.246-29.697 65.202-31.708a10.002 10.002 0 0 0 7.377-15.72c-22.479-31.97-59.198-51.057-98.224-51.057" style="fill:#DAEEF2;fill-opacity:1;fill-rule:nonzero;stroke:none" transform="matrix(1.33333 0 0 -1.33333 148.535 27.155)" clip-path="url(#a)"/></svg>


