<svg width="546.667" height="584.289" xmlns="http://www.w3.org/2000/svg"><defs><clipPath clipPathUnits="userSpaceOnUse" id="a"><path d="M0 3318h3318V0H0z" transform="translate(-2667.979 -1660.947)"/></clipPath><clipPath clipPathUnits="userSpaceOnUse" id="b"><path d="M0 3318h3318V0H0z" transform="translate(-2921.247 -1617.116)"/></clipPath><clipPath clipPathUnits="userSpaceOnUse" id="c"><path d="M0 3318h3318V0H0z" transform="translate(-2729.266 -1396.873)"/></clipPath><clipPath clipPathUnits="userSpaceOnUse" id="d"><path d="M0 3318h3318V0H0z" transform="translate(-2649.186 -1449.339)"/></clipPath><clipPath clipPathUnits="userSpaceOnUse" id="e"><path d="M0 3318h3318V0H0z" transform="translate(-2777.129 -1449.339)"/></clipPath><clipPath clipPathUnits="userSpaceOnUse" id="f"><path d="M0 3318h3318V0H0z" transform="translate(-2818.549 -1426.177)"/></clipPath><clipPath clipPathUnits="userSpaceOnUse" id="g"><path d="M0 3318h3318V0H0z" transform="translate(-2679.56 -1416.052)"/></clipPath></defs><path d="M0 0c-13.574 0-24.618-11.044-24.618-24.619 0-3.872.879-7.584 2.612-11.032a10.002 10.002 0 0 0-8.54-14.484c-24.297-.959-43.33-20.811-43.33-45.194 0-24.778 20.201-45.069 45.032-45.233l221.641.004c24.598.243 44.689 20.533 44.689 45.229 0 24.947-20.296 45.243-45.242 45.243-.928 0-1.938-.04-3.181-.127a9.98 9.98 0 0 0-7.276 2.45 9.997 9.997 0 0 0-3.395 6.886c-2.637 41.095-36.995 73.286-78.218 73.286-27.646 0-52.722-14.132-67.079-37.804A10.001 10.001 0 0 0 17.454-7.26C12.799-2.578 6.6 0 0 0m-28.91-160.562c-35.852.236-64.966 29.5-64.966 65.233 0 30.79 21.062 56.57 49.845 63.437a44.888 44.888 0 0 0-.587 7.273C-44.618-.016-24.603 20 0 20c7.93 0 15.539-2.053 22.227-5.908 18.552 24.176 46.962 38.317 77.947 38.317 48.584 0 89.57-35.631 97.133-82.69 33.617-2.593 60.179-30.777 60.179-65.048 0-35.616-28.975-64.877-64.59-65.229z" style="fill:#fff;fill-opacity:1;fill-rule:nonzero;stroke:none" transform="matrix(1.33333 0 0 -1.33333 125.168 232.19)" clip-path="url(#a)"/><path d="M0 0c-4.267 0-8.218 2.751-9.548 7.04-1.637 5.275 1.314 10.877 6.588 12.514C10.859 23.84 23.523 31.471 33.858 41.59 13.14 46.802-5.725 57.921-20.504 73.864c-19.117 20.621-29.645 47.474-29.645 75.61 0 16.816 3.722 33.137 10.874 48.035-19.75-1.994-38.281-10.347-52.949-24.018-16.855-15.71-27.082-36.966-28.794-59.853-.411-5.508-5.223-9.647-10.717-9.226-5.507.412-9.638 5.21-9.226 10.718 2.088 27.919 14.554 53.841 35.101 72.992 20.654 19.25 47.587 29.852 75.836 29.852 2.976 0 6.02-.124 9.047-.368a10 10 0 0 0 7.377-15.719c-10.827-15.4-16.549-33.524-16.549-52.413 0-23.078 8.634-45.101 24.312-62.014C9.758 70.638 30.888 60.363 53.659 58.528a10.002 10.002 0 0 0 7.377-15.719C46.92 22.731 26.297 7.688 2.966.451A10.04 10.04 0 0 0 0 0" style="fill:#DAEEF2;fill-opacity:1;fill-rule:nonzero;stroke:none" transform="matrix(1.33333 0 0 -1.33333 462.86 290.632)" clip-path="url(#b)"/><path d="M0 0a9.964 9.964 0 0 0-7.074 2.933c-3.904 3.907-3.901 10.239.007 14.141l23.049 23.027c3.908 3.903 10.241 3.9 14.142-.007 3.903-3.907 3.9-10.24-.007-14.142L7.067 2.926A9.968 9.968 0 0 0 0 0" style="fill:#8888ff;fill-opacity:1;fill-rule:nonzero;stroke:none" transform="matrix(1.33333 0 0 -1.33333 206.884 584.289)" clip-path="url(#c)"/><path d="M0 0a9.968 9.968 0 0 0-7.075 2.933c-3.903 3.907-3.9 10.239.008 14.142L7.469 31.596c3.907 3.903 10.239 3.899 14.142-.008 3.903-3.907 3.9-10.239-.007-14.143L7.067 2.925A9.967 9.967 0 0 0 0 0" style="fill:#8888ff;fill-opacity:1;fill-rule:nonzero;stroke:none" transform="matrix(1.33333 0 0 -1.33333 100.11 514.334)" clip-path="url(#d)"/><path d="M0 0a9.966 9.966 0 0 0-7.074 2.933c-3.904 3.907-3.901 10.238.007 14.141L7.468 31.595c3.907 3.903 10.238 3.9 14.141-.007 3.904-3.907 3.901-10.238-.006-14.142L7.067 2.926A9.968 9.968 0 0 0 0 0" style="fill:#8888ff;fill-opacity:1;fill-rule:nonzero;stroke:none" transform="matrix(1.33333 0 0 -1.33333 270.702 514.334)" clip-path="url(#e)"/><path d="M0 0a9.963 9.963 0 0 0-7.075 2.934c-3.904 3.907-3.9 10.239.009 14.141l37.731 37.683c3.908 3.904 10.241 3.899 14.142-.009 3.903-3.907 3.899-10.239-.009-14.142L7.066 2.925A9.967 9.967 0 0 0 0 0" style="fill:#8888ff;fill-opacity:1;fill-rule:nonzero;stroke:none" transform="matrix(1.33333 0 0 -1.33333 325.928 545.217)" clip-path="url(#f)"/><path d="M0 0a9.964 9.964 0 0 0-7.074 2.933c-3.904 3.907-3.901 10.239.007 14.141l47.856 47.808c3.907 3.903 10.24 3.9 14.142-.007 3.903-3.907 3.9-10.239-.007-14.142L7.067 2.926A9.968 9.968 0 0 0 0 0" style="fill:#8888ff;fill-opacity:1;fill-rule:nonzero;stroke:none" transform="matrix(1.33333 0 0 -1.33333 140.61 558.717)" clip-path="url(#g)"/></svg>
