<?xml version="1.0" encoding="utf-8"?>
<svg xmlns="http://www.w3.org/2000/svg" width="300" height="300" style="shape-rendering:geometricPrecision;text-rendering:geometricPrecision;image-rendering:optimizeQuality;fill-rule:evenodd;clip-rule:evenodd">
  <path style="opacity: 0.946; fill: rgb(255, 255, 255);" d="M64.5-.5h131c1.591 3.461 2.258 7.128 2 11 11.338-.166 22.672 0 34 .5 2.167.833 3.667 2.333 4.5 4.5.667 89.333.667 178.667 0 268-.833 2.167-2.333 3.667-4.5 4.5-11.328.5-22.662.667-34 .5.389 3.914-.278 7.58-2 11h-131l-1.5-3c-.667-98-.667-196 0-294l1.5-3Zm16 15h99c-.511 14.33-1.011 28.663-1.5 43a52.187 52.187 0 0 0-10-7 91.882 91.882 0 0 0-3.5-26 840.73 840.73 0 0 0-71-.5 14.497 14.497 0 0 0-4.5 4.5 394.144 394.144 0 0 1-1.5 28 21.76 21.76 0 0 0-7.5 6 409.403 409.403 0 0 1 .5-48Zm117 13h21v9h-21v-9Zm0 26c7 1.333 14 1.333 21 0v9h-21v-9Zm0 26a53.73 53.73 0 0 0 20 0 21.128 21.128 0 0 1 1 9 108.41 108.41 0 0 0-20.5 1 50.464 50.464 0 0 1-.5-10Zm0 26a52.005 52.005 0 0 0 20 0c1.157 3.284 1.324 6.618.5 10a50.512 50.512 0 0 0-20 0 50.464 50.464 0 0 1-.5-10Zm0 26a52.005 52.005 0 0 0 20 0c1.157 3.284 1.324 6.618.5 10a50.512 50.512 0 0 0-20 0 50.464 50.464 0 0 1-.5-10Zm0 26c6.864 1.281 13.697 1.281 20.5 0a25.238 25.238 0 0 1 0 10c-6.47-1.318-12.97-1.318-19.5 0a25.879 25.879 0 0 1-1-10Zm0 26a53.717 53.717 0 0 0 20.5 0c.824 3.382.657 6.716-.5 10a45.636 45.636 0 0 0-19 0 25.879 25.879 0 0 1-1-10Zm0 26a53.717 53.717 0 0 0 20.5 0c.824 3.382.657 6.716-.5 10a45.636 45.636 0 0 0-19 0 25.879 25.879 0 0 1-1-10Zm0 26a116.8 116.8 0 0 0 21 1 21.127 21.127 0 0 1-1 9 53.718 53.718 0 0 0-20 0v-10Zm0 27h21v8h-21v-8Z"/>
  <path style="opacity:1" fill="#ad5c48" d="M68.5 1.5c40.668-.167 81.335 0 122 .5l2.5 2.5c.498 3.317.665 6.65.5 10 12.005-.166 24.005 0 36 .5 1.167.5 2 1.333 2.5 2.5.667 88 .667 176 0 264l-2.5 2.5c-11.995.5-23.995.667-36 .5a50.464 50.464 0 0 1-.5 10l-2.5 2.5a3658.67 3658.67 0 0 1-121 0l-2.5-2.5c-.667-96.667-.667-193.333 0-290l1.5-3Zm12 13a409.403 409.403 0 0 0-.5 48 21.76 21.76 0 0 1 7.5-6 394.144 394.144 0 0 0 1.5-28 14.497 14.497 0 0 1 4.5-4.5 840.73 840.73 0 0 1 71 .5 91.882 91.882 0 0 1 3.5 26 52.187 52.187 0 0 1 10 7c.489-14.337.989-28.67 1.5-43h-99Zm117 13v9h21v-9h-21Zm0 26v9h21v-9c-7 1.333-14 1.333-21 0Zm0 26c-.165 3.35.002 6.683.5 10a108.41 108.41 0 0 1 20.5-1 21.128 21.128 0 0 0-1-9 53.73 53.73 0 0 1-20 0Zm0 26c-.165 3.35.002 6.683.5 10a50.512 50.512 0 0 1 20 0c.824-3.382.657-6.716-.5-10a52.005 52.005 0 0 1-20 0Zm0 26c-.165 3.35.002 6.683.5 10a50.512 50.512 0 0 1 20 0c.824-3.382.657-6.716-.5-10a52.005 52.005 0 0 1-20 0Zm0 26a25.879 25.879 0 0 0 1 10c6.53-1.318 13.03-1.318 19.5 0a25.238 25.238 0 0 0 0-10c-6.803 1.281-13.636 1.281-20.5 0Zm0 26a25.879 25.879 0 0 0 1 10 45.636 45.636 0 0 1 19 0c1.157-3.284 1.324-6.618.5-10a53.717 53.717 0 0 1-20.5 0Zm0 26a25.879 25.879 0 0 0 1 10 45.636 45.636 0 0 1 19 0c1.157-3.284 1.324-6.618.5-10a53.717 53.717 0 0 1-20.5 0Zm0 26v10a53.718 53.718 0 0 1 20 0 21.127 21.127 0 0 0 1-9 116.8 116.8 0 0 1-21-1Zm0 27v8h21v-8h-21Z"/>
  <path style="opacity: 0.949; fill: rgb(255, 255, 255);" d="m183.5 32.5-2 45a38.442 38.442 0 0 1-5.5-15 28.535 28.535 0 0 0-8.5-7 164.328 164.328 0 0 0-1.5 18c-.837 1.85-1.671 3.684-2.5 5.5-23.333.667-46.667.667-70 0-2.31-1.637-3.81-3.804-4.5-6.5l-1-11a41.367 41.367 0 0 0-8.5 9c-1.223 1.114-2.556 1.28-4 .5a589.344 589.344 0 0 1 0-60.5h108c.506 3.507-.16 6.674-2 9.5 1.889 3.836 2.555 8.003 2 12.5Zm-103-18a409.403 409.403 0 0 0-.5 48 21.76 21.76 0 0 1 7.5-6 394.144 394.144 0 0 0 1.5-28 14.497 14.497 0 0 1 4.5-4.5 840.73 840.73 0 0 1 71 .5 91.882 91.882 0 0 1 3.5 26 52.187 52.187 0 0 1 10 7c.489-14.337.989-28.67 1.5-43h-99Z"/>
  <path style="opacity: 0.911; fill: rgb(255, 255, 255);" d="M193.5 23.5h30v252h-30v-252Zm4 4v9h21v-9h-21Zm0 26v9h21v-9c-7 1.333-14 1.333-21 0Zm0 26c-.165 3.35.002 6.683.5 10a108.41 108.41 0 0 1 20.5-1 21.128 21.128 0 0 0-1-9 53.73 53.73 0 0 1-20 0Zm0 26c-.165 3.35.002 6.683.5 10a50.512 50.512 0 0 1 20 0c.824-3.382.657-6.716-.5-10a52.005 52.005 0 0 1-20 0Zm0 26c-.165 3.35.002 6.683.5 10a50.512 50.512 0 0 1 20 0c.824-3.382.657-6.716-.5-10a52.005 52.005 0 0 1-20 0Zm0 26a25.879 25.879 0 0 0 1 10c6.53-1.318 13.03-1.318 19.5 0a25.238 25.238 0 0 0 0-10c-6.803 1.281-13.636 1.281-20.5 0Zm0 26a25.879 25.879 0 0 0 1 10 45.636 45.636 0 0 1 19 0c1.157-3.284 1.324-6.618.5-10a53.717 53.717 0 0 1-20.5 0Zm0 26a25.879 25.879 0 0 0 1 10 45.636 45.636 0 0 1 19 0c1.157-3.284 1.324-6.618.5-10a53.717 53.717 0 0 1-20.5 0Zm0 26v10a53.718 53.718 0 0 1 20 0 21.127 21.127 0 0 0 1-9 116.8 116.8 0 0 1-21-1Zm0 27v8h21v-8h-21Z"/>
  <path style="opacity:1" fill="#501c0b" d="M95.5 27.5c22.003-.167 44.003 0 66 .5 2.628 15.468 2.628 30.968 0 46.5a748.75 748.75 0 0 1-67 .5L93 73.5a462.477 462.477 0 0 1 0-43 10.521 10.521 0 0 0 2.5-3Z"/>
  <path style="opacity:1" fill="#090602" d="M157.5 36.5v30h-56v-30h56Z"/>
  <path style="opacity:1" fill="#baa55b" d="M156.5 39.5h-53v24c-.993-8.15-1.326-16.483-1-25 18.174-.33 36.174.003 54 1Z"/>
  <path style="opacity:1" fill="#d4d086" d="M155.5 39.5v23h-52v-23h52Z"/>
  <path style="opacity:1" fill="#214f0b" d="M199.5 40.5c5.676-.166 11.343 0 17 .5 3.976 2.716 3.976 5.383 0 8a72.496 72.496 0 0 1-17 0c-2.601-2.83-2.601-5.663 0-8.5Z"/>
  <path style="opacity:1" fill="#eed375" d="M155.5 39.5h1v24h-53v-1h52v-23Z"/>
  <path style="opacity:1" fill="#371308" d="M157.5 36.5c.994 10.153 1.328 20.486 1 31a812.816 812.816 0 0 1-57-1h56v-30Z"/>
  <path style="opacity:1" fill="#214e0b" d="M199.5 66.5c5.676-.166 11.343 0 17 .5 3.976 2.716 3.976 5.383 0 8a72.496 72.496 0 0 1-17 0c-2.601-2.83-2.601-5.663 0-8.5Z"/>
  <path style="opacity:1" fill="#633429" d="M183.5 32.5c.167 15.67 0 31.337-.5 47-.717-.544-1.217-1.21-1.5-2l2-45Z"/>
  <path style="opacity:1" fill="#0f0503" d="M94.5 88.5c23.002-.167 46.002 0 69 .5 2.955.392 5.122 1.892 6.5 4.5a552.224 552.224 0 0 1 0 47l-3.5 3.5c-24.333.667-48.667.667-73 0-2.608-1.378-4.108-3.545-4.5-6.5a420.479 420.479 0 0 1 0-41c.625-3.61 2.458-6.276 5.5-8Z"/>
  <path style="opacity:1" fill="#501c0b" d="M95.5 92.5c23.002-.167 46.002 0 69 .5l1.5 1.5a338.065 338.065 0 0 1-.5 45 849.26 849.26 0 0 1-71 .5l-1.5-1.5a462.477 462.477 0 0 1 0-43 10.521 10.521 0 0 0 2.5-3Z"/>
  <path style="opacity:1" fill="#214e0b" d="M199.5 92.5c5.676-.166 11.343 0 17 .5 1.944 2.153 2.444 4.653 1.5 7.5-6.084 1.142-12.251 1.309-18.5.5-2.601-2.83-2.601-5.663 0-8.5Z"/>
  <path style="opacity:1" fill="#280e05" d="M157.5 101.5c.994 10.153 1.328 20.486 1 31a813 813 0 0 1-57-1h56v-30Z"/>
  <path style="opacity:1" fill="#050301" d="M157.5 101.5v30h-56v-30h56Z"/>
  <path style="opacity:1" fill="#dbc875" d="M102.5 103.5h54v25h-54v-25Z"/>
  <path style="opacity:1" fill="#d4d086" d="M104.5 105.5h51v22h-51v-22Z"/>
  <path style="opacity:1" fill="#214e0b" d="M200.5 118.5a112.97 112.97 0 0 1 15 .5c2.879 1.666 3.712 4.166 2.5 7.5-6.084 1.142-12.251 1.309-18.5.5-2.835-3.305-2.501-6.138 1-8.5Z"/>
  <path style="opacity:1" fill="#1f4a0b" d="M200.5 144.5a112.97 112.97 0 0 1 15 .5c2.879 1.666 3.712 4.166 2.5 7.5a9.454 9.454 0 0 1-2.5 1.5c-5 .667-10 .667-15 0-3.973-3.294-3.973-6.46 0-9.5Z"/>
  <path style="opacity:1" fill="#0f0503" d="M93.5 154.5c24.336-.167 48.669 0 73 .5l3.5 3.5a552.224 552.224 0 0 1 0 47c-1.378 2.608-3.545 4.108-6.5 4.5-23 .667-46 .667-69 0-3.163-1.48-4.996-3.98-5.5-7.5-.667-14-.667-28 0-42 .98-2.468 2.48-4.468 4.5-6Z"/>
  <path style="opacity:1" fill="#501c0b" d="M94.5 158.5c23.669-.167 47.336 0 71 .5a348.497 348.497 0 0 1 .5 45.5 9.454 9.454 0 0 1-2.5 1.5l-33.5.5a323.796 323.796 0 0 1-35.5-1.5l-1.5-1.5a462.477 462.477 0 0 1 0-43c.717-.544 1.217-1.211 1.5-2Z"/>
  <path style="opacity:1" fill="#280e05" d="M101.5 167.5a813 813 0 0 1 57-1v31a813 813 0 0 1-57-1h56v-29h-56Z"/>
  <path style="opacity:1" fill="#020000" d="M101.5 167.5h56v29h-56v-29Z"/>
  <path style="opacity:1" fill="#e3d37c" d="M102.5 169.5h53v24h-53v-24Z"/>
  <path style="opacity:1" fill="#d4d086" d="M103.5 170.5h51v22h-51v-22Z"/>
  <path style="opacity:1" fill="#1f4a0b" d="M200.5 170.5a112.97 112.97 0 0 1 15 .5c2.879 1.666 3.712 4.166 2.5 7.5a9.454 9.454 0 0 1-2.5 1.5c-5 .667-10 .667-15 0-3.843-3.033-3.843-6.199 0-9.5Z"/>
  <path style="opacity:1" fill="#80713d" d="M102.5 169.5a729.55 729.55 0 0 1 54-1v26a729.55 729.55 0 0 1-54-1h53v-24h-53Z"/>
  <path style="opacity:1" fill="#214e0b" d="M199.5 197.5c6.009-.166 12.009.001 18 .5 1.775 3.394 1.108 6.06-2 8-5 .667-10 .667-15 0-3.632-2.347-3.965-5.18-1-8.5Z"/>
  <path style="opacity:1" fill="#0d0503" d="M93.5 219.5c24.336-.167 48.669 0 73 .5l3.5 3.5a552.224 552.224 0 0 1 0 47 14.51 14.51 0 0 1-4.5 4.5 864.828 864.828 0 0 1-72-.5c-2.495-1.649-3.995-3.983-4.5-7-.667-14-.667-28 0-42a40.775 40.775 0 0 1 4.5-6Z"/>
  <path style="opacity:1" fill="#501c0b" d="M94.5 223.5c23.712-.323 47.378.01 71 1a338.065 338.065 0 0 1 .5 45l-1.5 1.5c-23 .667-46 .667-69 0l-2.5-2.5a462.477 462.477 0 0 1 0-43c.717-.544 1.217-1.211 1.5-2Z"/>
  <path style="opacity:1" fill="#214e0b" d="M199.5 223.5c6.009-.166 12.009.001 18 .5 1.513 2.916 1.18 5.582-1 8a72.464 72.464 0 0 1-17 0c-2.601-2.83-2.601-5.663 0-8.5Z"/>
  <path style="opacity:1" fill="#371308" d="M101.5 232.5a813 813 0 0 1 57-1c.328 10.514-.006 20.847-1 31v-30h-56Z"/>
  <path style="opacity:1" fill="#0a0502" d="M101.5 232.5h56v30h-56v-30Z"/>
  <path style="opacity:1" fill="#214e0b" d="M199.5 249.5c5.676-.166 11.343.001 17 .5 3.976 2.617 3.976 5.284 0 8a72.464 72.464 0 0 1-17 0c-2.601-2.83-2.601-5.663 0-8.5Z"/>
  <path style="opacity:1" fill="#d4c16e" d="M103.5 234.5h53v25h-53v-25Z"/>
  <path style="opacity:1" fill="#d3d086" d="M104.5 236.5h51v22h-51v-22Z"/>
  <path style="opacity:1" fill="#4f4626" d="M103.5 234.5v25h53a729.55 729.55 0 0 1-54 1c-.326-8.849.007-17.516 1-26Z"/>
</svg>