<?xml version="1.0" encoding="utf-8"?>
<svg xmlns="http://www.w3.org/2000/svg" width="300" height="300" style="shape-rendering:geometricPrecision;text-rendering:geometricPrecision;image-rendering:optimizeQuality;fill-rule:evenodd;clip-rule:evenodd">
  <path style="opacity: 0.948; fill: rgb(255, 255, 255);" d="M64.5-.5h131c1.591 3.461 2.258 7.128 2 11 11.338-.166 22.672 0 34 .5 2.167.833 3.667 2.333 4.5 4.5.667 89.333.667 178.667 0 268-.833 2.167-2.333 3.667-4.5 4.5-11.328.5-22.662.667-34 .5.389 3.914-.278 7.58-2 11h-131l-1.5-3c-.667-98-.667-196 0-294l1.5-3Zm16 15h99v270h-99v-270Zm117 13h21v9h-21v-9Zm-91 13h47v22h-47v-22Zm91 13c7 1.333 14 1.333 21 0v9h-21v-9Zm0 26a53.73 53.73 0 0 0 20 0 21.128 21.128 0 0 1 1 9 108.41 108.41 0 0 0-20.5 1 50.464 50.464 0 0 1-.5-10Zm0 26a52.005 52.005 0 0 0 20 0c1.157 3.284 1.324 6.618.5 10a50.512 50.512 0 0 0-20 0 50.464 50.464 0 0 1-.5-10Zm-91 1h47v21h-47v-21Zm91 25a52.005 52.005 0 0 0 20 0c1.157 3.284 1.324 6.618.5 10a50.512 50.512 0 0 0-20 0 50.464 50.464 0 0 1-.5-10Zm0 26c6.864 1.281 13.697 1.281 20.5 0a25.238 25.238 0 0 1 0 10c-6.47-1.318-12.97-1.318-19.5 0a25.879 25.879 0 0 1-1-10Zm-91 14h47v21h-47v-21Zm91 12a53.717 53.717 0 0 0 20.5 0c.824 3.382.657 6.716-.5 10a45.636 45.636 0 0 0-19 0 25.879 25.879 0 0 1-1-10Zm0 26a53.717 53.717 0 0 0 20.5 0c.824 3.382.657 6.716-.5 10a45.636 45.636 0 0 0-19 0 25.879 25.879 0 0 1-1-10Zm0 26a116.8 116.8 0 0 0 21 1 21.127 21.127 0 0 1-1 9 53.718 53.718 0 0 0-20 0v-10Zm-91 1h47v21h-47v-21Zm91 26h21v8h-21v-8Z"/>
  <path style="opacity:1" fill="#22500b" d="M68.5 1.5c40.668-.167 81.335 0 122 .5l2.5 2.5c.498 3.317.665 6.65.5 10 12.005-.166 24.005 0 36 .5 1.167.5 2 1.333 2.5 2.5.667 88 .667 176 0 264l-2.5 2.5c-11.995.5-23.995.667-36 .5a50.464 50.464 0 0 1-.5 10l-2.5 2.5a3658.67 3658.67 0 0 1-121 0l-2.5-2.5c-.667-96.667-.667-193.333 0-290l1.5-3Zm12 13v270h99v-270h-99Zm117 13v9h21v-9h-21Zm-91 13v22h47v-22h-47Zm91 13v9h21v-9c-7 1.333-14 1.333-21 0Zm0 26c-.165 3.35.002 6.683.5 10a108.41 108.41 0 0 1 20.5-1 21.128 21.128 0 0 0-1-9 53.73 53.73 0 0 1-20 0Zm0 26c-.165 3.35.002 6.683.5 10a50.512 50.512 0 0 1 20 0c.824-3.382.657-6.716-.5-10a52.005 52.005 0 0 1-20 0Zm-91 1v21h47v-21h-47Zm91 25c-.165 3.35.002 6.683.5 10a50.512 50.512 0 0 1 20 0c.824-3.382.657-6.716-.5-10a52.005 52.005 0 0 1-20 0Zm0 26a25.879 25.879 0 0 0 1 10c6.53-1.318 13.03-1.318 19.5 0a25.238 25.238 0 0 0 0-10c-6.803 1.281-13.636 1.281-20.5 0Zm-91 14v21h47v-21h-47Zm91 12a25.879 25.879 0 0 0 1 10 45.636 45.636 0 0 1 19 0c1.157-3.284 1.324-6.618.5-10a53.717 53.717 0 0 1-20.5 0Zm0 26a25.879 25.879 0 0 0 1 10 45.636 45.636 0 0 1 19 0c1.157-3.284 1.324-6.618.5-10a53.717 53.717 0 0 1-20.5 0Zm0 26v10a53.718 53.718 0 0 1 20 0 21.127 21.127 0 0 0 1-9 116.8 116.8 0 0 1-21-1Zm-91 1v21h47v-21h-47Zm91 26v8h21v-8h-21Z"/>
  <path style="opacity: 0.882; fill: rgb(255, 255, 255);" d="M75.5 10.5h109v278h-109v-278Zm5 4v270h99v-270h-99Zm26 26v22h47v-22h-47Zm0 66v21h47v-21h-47Zm0 65v21h47v-21h-47Zm0 65v21h47v-21h-47Z"/>
  <path style="opacity:.899" fill="#010000" d="M93.5 23.5c23.676-.333 47.343 0 71 1a32.359 32.359 0 0 1 2.5 10 306.347 306.347 0 0 1 0 35c-.161 4.173-1.661 7.673-4.5 10.5-22 .667-44 .667-66 0-3.52-.504-6.02-2.337-7.5-5.5a529.224 529.224 0 0 1 0-46 32.832 32.832 0 0 1 4.5-5Zm13 17v22h47v-22h-47Z"/>
  <path style="opacity:1" fill="#102005" d="M193.5 23.5v251h29v-251a15876.61 15876.61 0 0 1 1 252h-31a15876.61 15876.61 0 0 1 1-252Zm4 4v9h21v-9h-21Zm0 26v9h21v-9c-7 1.333-14 1.333-21 0Zm0 26c-.165 3.35.002 6.683.5 10a108.41 108.41 0 0 1 20.5-1 21.128 21.128 0 0 0-1-9 53.73 53.73 0 0 1-20 0Zm0 26c-.165 3.35.002 6.683.5 10a50.512 50.512 0 0 1 20 0c.824-3.382.657-6.716-.5-10a52.005 52.005 0 0 1-20 0Zm0 26c-.165 3.35.002 6.683.5 10a50.512 50.512 0 0 1 20 0c.824-3.382.657-6.716-.5-10a52.005 52.005 0 0 1-20 0Zm0 26a25.879 25.879 0 0 0 1 10c6.53-1.318 13.03-1.318 19.5 0a25.238 25.238 0 0 0 0-10c-6.803 1.281-13.636 1.281-20.5 0Zm0 26a25.879 25.879 0 0 0 1 10 45.636 45.636 0 0 1 19 0c1.157-3.284 1.324-6.618.5-10a53.717 53.717 0 0 1-20.5 0Zm0 26a25.879 25.879 0 0 0 1 10 45.636 45.636 0 0 1 19 0c1.157-3.284 1.324-6.618.5-10a53.717 53.717 0 0 1-20.5 0Zm0 26v10a53.718 53.718 0 0 1 20 0 21.127 21.127 0 0 0 1-9 116.8 116.8 0 0 1-21-1Zm0 27v8h21v-8h-21Z"/>
  <path style="opacity: 0.911; fill: rgb(255, 255, 255);" d="M193.5 23.5h29v251h-29v-251Zm4 4v9h21v-9h-21Zm0 26v9h21v-9c-7 1.333-14 1.333-21 0Zm0 26c-.165 3.35.002 6.683.5 10a108.41 108.41 0 0 1 20.5-1 21.128 21.128 0 0 0-1-9 53.73 53.73 0 0 1-20 0Zm0 26c-.165 3.35.002 6.683.5 10a50.512 50.512 0 0 1 20 0c.824-3.382.657-6.716-.5-10a52.005 52.005 0 0 1-20 0Zm0 26c-.165 3.35.002 6.683.5 10a50.512 50.512 0 0 1 20 0c.824-3.382.657-6.716-.5-10a52.005 52.005 0 0 1-20 0Zm0 26a25.879 25.879 0 0 0 1 10c6.53-1.318 13.03-1.318 19.5 0a25.238 25.238 0 0 0 0-10c-6.803 1.281-13.636 1.281-20.5 0Zm0 26a25.879 25.879 0 0 0 1 10 45.636 45.636 0 0 1 19 0c1.157-3.284 1.324-6.618.5-10a53.717 53.717 0 0 1-20.5 0Zm0 26a25.879 25.879 0 0 0 1 10 45.636 45.636 0 0 1 19 0c1.157-3.284 1.324-6.618.5-10a53.717 53.717 0 0 1-20.5 0Zm0 26v10a53.718 53.718 0 0 1 20 0 21.127 21.127 0 0 0 1-9 116.8 116.8 0 0 1-21-1Zm0 27v8h21v-8h-21Z"/>
  <path style="opacity:1" fill="#501c0b" d="M95.5 27.5c22.003-.167 44.003 0 66 .5 2.628 15.468 2.628 30.968 0 46.5a748.75 748.75 0 0 1-67 .5L93 73.5a462.477 462.477 0 0 1 0-43 10.521 10.521 0 0 0 2.5-3Zm11 13v22h47v-22h-47Z"/>
  <path style="opacity:.935" fill="#010000" d="M157.5 36.5v30h-56v-30h56Zm-51 4v22h47v-22h-47Z"/>
  <path style="opacity:1" fill="#22500b" d="M199.5 40.5c5.676-.166 11.343 0 17 .5 2.119 2.218 2.452 4.718 1 7.5a56.768 56.768 0 0 1-18 .5c-2.601-2.83-2.601-5.663 0-8.5Z"/>
  <path style="opacity:1" fill="#371308" d="M157.5 36.5c.994 10.153 1.328 20.486 1 31a812.816 812.816 0 0 1-57-1h56v-30Z"/>
  <path style="opacity:1" fill="#214f0b" d="M199.5 66.5c5.676-.166 11.343 0 17 .5 2.119 2.219 2.452 4.719 1 7.5a56.768 56.768 0 0 1-18 .5c-2.601-2.83-2.601-5.663 0-8.5Z"/>
  <path style="opacity:.894" fill="#060100" d="M93.5 88.5c24.756-.48 49.423.02 74 1.5l3.5 3.5a295.064 295.064 0 0 1-1 48c-1.319 1.987-3.152 3.154-5.5 3.5-24.088.98-48.088.646-72-1a11.529 11.529 0 0 1-3.5-4.5 529.224 529.224 0 0 1 0-46 31.444 31.444 0 0 0 4.5-5Zm13 18v21h47v-21h-47Z"/>
  <path style="opacity:1" fill="#501c0b" d="M95.5 92.5c23.002-.167 46.002 0 69 .5l1.5 1.5a338.065 338.065 0 0 1-.5 45 849.26 849.26 0 0 1-71 .5l-1.5-1.5a462.477 462.477 0 0 1 0-43 10.521 10.521 0 0 0 2.5-3Zm11 14v21h47v-21h-47Z"/>
  <path style="opacity:1" fill="#214e0b" d="M199.5 92.5c5.676-.166 11.343 0 17 .5 1.944 2.153 2.444 4.653 1.5 7.5-6.084 1.142-12.251 1.309-18.5.5-2.601-2.83-2.601-5.663 0-8.5Z"/>
  <path style="opacity:1" fill="#280e05" d="M157.5 101.5c.994 10.153 1.328 20.486 1 31a813 813 0 0 1-57-1h56v-30Z"/>
  <path style="opacity:.857" fill="#020000" d="M157.5 101.5v30h-56v-30h56Zm-51 5v21h47v-21h-47Z"/>
  <path style="opacity:1" fill="#214e0b" d="M200.5 118.5a112.97 112.97 0 0 1 15 .5c2.879 1.666 3.712 4.166 2.5 7.5-6.084 1.142-12.251 1.309-18.5.5-2.835-3.305-2.501-6.138 1-8.5Z"/>
  <path style="opacity:1" fill="#1f4a0b" d="M200.5 144.5a112.97 112.97 0 0 1 15 .5c2.879 1.666 3.712 4.166 2.5 7.5a9.454 9.454 0 0 1-2.5 1.5c-5 .667-10 .667-15 0-3.973-3.294-3.973-6.46 0-9.5Z"/>
  <path style="opacity:.894" fill="#060100" d="M93.5 153.5a929.565 929.565 0 0 1 74 1.5 11.532 11.532 0 0 1 3.5 4.5 528.986 528.986 0 0 1 0 46 17.842 17.842 0 0 1-5.5 4.5c-24 .667-48 .667-72 0l-4.5-4.5a529.224 529.224 0 0 1 0-46 40.775 40.775 0 0 1 4.5-6Zm13 18v21h47v-21h-47Z"/>
  <path style="opacity:1" fill="#501c0b" d="M94.5 158.5c23.669-.167 47.336 0 71 .5a348.497 348.497 0 0 1 .5 45.5 9.454 9.454 0 0 1-2.5 1.5l-33.5.5a323.796 323.796 0 0 1-35.5-1.5l-1.5-1.5a462.477 462.477 0 0 1 0-43c.717-.544 1.217-1.211 1.5-2Zm12 13v21h47v-21h-47Z"/>
  <path style="opacity:1" fill="#280e06" d="M101.5 167.5a813 813 0 0 1 57-1v31a813 813 0 0 1-57-1h56v-29h-56Z"/>
  <path style="opacity:.877" fill="#010000" d="M101.5 167.5h56v29h-56v-29Zm5 4v21h47v-21h-47Z"/>
  <path style="opacity:1" fill="#214d0b" d="M198.5 171.5c6.342-.166 12.675 0 19 .5 1.775 3.394 1.108 6.06-2 8-5 .667-10 .667-15 0a9.454 9.454 0 0 1-2.5-1.5 11.596 11.596 0 0 1 .5-7Z"/>
  <path style="opacity:1" fill="#214e0b" d="M199.5 197.5c6.009-.166 12.009.001 18 .5 1.775 3.394 1.108 6.06-2 8-5 .667-10 .667-15 0-3.632-2.347-3.965-5.18-1-8.5Z"/>
  <path style="opacity:.878" fill="#040000" d="M95.5 218.5c23.002-.167 46.002 0 69 .5 3.083.786 5.249 2.619 6.5 5.5a528.986 528.986 0 0 1 0 46l-4.5 4.5c-24.333.667-48.667.667-73 0l-4.5-4.5a529.224 529.224 0 0 1 0-46c1.436-2.942 3.603-4.942 6.5-6Zm11 18v21h47v-21h-47Z"/>
  <path style="opacity:1" fill="#4f1c0b" d="M94.5 223.5c23.712-.323 47.378.01 71 1a338.065 338.065 0 0 1 .5 45l-1.5 1.5c-23 .667-46 .667-69 0l-2.5-2.5a462.477 462.477 0 0 1 0-43c.717-.544 1.217-1.211 1.5-2Zm12 13v21h47v-21h-47Z"/>
  <path style="opacity:1" fill="#214e0b" d="M199.5 223.5c6.009-.166 12.009.001 18 .5 1.513 2.916 1.18 5.582-1 8a72.464 72.464 0 0 1-17 0c-2.601-2.83-2.601-5.663 0-8.5Z"/>
  <path style="opacity:.877" fill="#050100" d="M101.5 232.5h57v30h-57v-30Zm5 4v21h47v-21h-47Z"/>
  <path style="opacity:1" fill="#214f0b" d="M199.5 249.5c5.676-.166 11.343.001 17 .5 2.57 2.615 2.57 5.282 0 8a72.464 72.464 0 0 1-17 0c-2.601-2.83-2.601-5.663 0-8.5Z"/>
</svg>