<?xml version="1.0" encoding="utf-8"?>
<svg xmlns="http://www.w3.org/2000/svg" width="300" height="300" style="shape-rendering:geometricPrecision;text-rendering:geometricPrecision;image-rendering:optimizeQuality;fill-rule:evenodd;clip-rule:evenodd">
  <path style="opacity: 0.946; fill: rgb(255, 248, 248);" d="M64.5-.5h131c1.591 3.461 2.258 7.128 2 11 11.338-.166 22.672 0 34 .5 2.167.833 3.667 2.333 4.5 4.5.667 89.333.667 178.667 0 268-.833 2.167-2.333 3.667-4.5 4.5-11.328.5-22.662.667-34 .5.389 3.914-.278 7.58-2 11h-131l-1.5-3c-.667-98-.667-196 0-294l1.5-3Zm16 15h99c.167 39.668 0 79.335-.5 119-1.739-2.241-3.906-3.908-6.5-5a613.783 613.783 0 0 1-1.5-35l-3.5-3.5a370.105 370.105 0 0 0-38-1.5l-36 .5-4.5 4.5-1 35-4 4a4272.413 4272.413 0 0 1-3.5-118Zm117 13h21v9h-21v-9Zm0 26c7 1.333 14 1.333 21 0v9h-21v-9Zm0 26a53.73 53.73 0 0 0 20 0 21.128 21.128 0 0 1 1 9 108.41 108.41 0 0 0-20.5 1 50.464 50.464 0 0 1-.5-10Zm0 26a52.005 52.005 0 0 0 20 0c1.157 3.284 1.324 6.618.5 10a50.512 50.512 0 0 0-20 0 50.464 50.464 0 0 1-.5-10Zm0 26a52.005 52.005 0 0 0 20 0c1.157 3.284 1.324 6.618.5 10a50.512 50.512 0 0 0-20 0 50.464 50.464 0 0 1-.5-10Zm0 26c6.864 1.281 13.697 1.281 20.5 0a25.238 25.238 0 0 1 0 10c-6.47-1.318-12.97-1.318-19.5 0a25.879 25.879 0 0 1-1-10Zm0 26a53.717 53.717 0 0 0 20.5 0c.824 3.382.657 6.716-.5 10a45.636 45.636 0 0 0-19 0 25.879 25.879 0 0 1-1-10Zm0 26a53.717 53.717 0 0 0 20.5 0c.824 3.382.657 6.716-.5 10a45.636 45.636 0 0 0-19 0 25.879 25.879 0 0 1-1-10Zm0 26a116.8 116.8 0 0 0 21 1 21.127 21.127 0 0 1-1 9 53.718 53.718 0 0 0-20 0v-10Zm0 27h21v8h-21v-8Z"/>
  <path style="opacity:1" d="M68.5 1.5c40.668-.167 81.335 0 122 .5l2.5 2.5c.498 3.317.665 6.65.5 10 12.005-.166 24.005 0 36 .5 1.167.5 2 1.333 2.5 2.5.667 88 .667 176 0 264l-2.5 2.5c-11.995.5-23.995.667-36 .5a50.464 50.464 0 0 1-.5 10l-2.5 2.5a3658.67 3658.67 0 0 1-121 0l-2.5-2.5c-.667-96.667-.667-193.333 0-290l1.5-3Zm12 13c.623 39.35 1.79 78.684 3.5 118l4-4 1-35 4.5-4.5 36-.5a370.105 370.105 0 0 1 38 1.5l3.5 3.5a613.783 613.783 0 0 0 1.5 35c2.594 1.092 4.761 2.759 6.5 5 .5-39.665.667-79.332.5-119h-99Zm117 13v9h21v-9h-21Zm0 26v9h21v-9c-7 1.333-14 1.333-21 0Zm0 26c-.165 3.35.002 6.683.5 10a108.41 108.41 0 0 1 20.5-1 21.128 21.128 0 0 0-1-9 53.73 53.73 0 0 1-20 0Zm0 26c-.165 3.35.002 6.683.5 10a50.512 50.512 0 0 1 20 0c.824-3.382.657-6.716-.5-10a52.005 52.005 0 0 1-20 0Zm0 26c-.165 3.35.002 6.683.5 10a50.512 50.512 0 0 1 20 0c.824-3.382.657-6.716-.5-10a52.005 52.005 0 0 1-20 0Zm0 26a25.879 25.879 0 0 0 1 10c6.53-1.318 13.03-1.318 19.5 0a25.238 25.238 0 0 0 0-10c-6.803 1.281-13.636 1.281-20.5 0Zm0 26a25.879 25.879 0 0 0 1 10 45.636 45.636 0 0 1 19 0c1.157-3.284 1.324-6.618.5-10a53.717 53.717 0 0 1-20.5 0Zm0 26a25.879 25.879 0 0 0 1 10 45.636 45.636 0 0 1 19 0c1.157-3.284 1.324-6.618.5-10a53.717 53.717 0 0 1-20.5 0Zm0 26v10a53.718 53.718 0 0 1 20 0 21.127 21.127 0 0 0 1-9 116.8 116.8 0 0 1-21-1Zm0 27v8h21v-8h-21Z" fill="#739059"/>
  <path style="opacity: 0.923; fill: rgb(255, 255, 255);" d="M183.5 10.5v137h-3c-.018-6.368-2.851-11.034-8.5-14-.326 4.328-2.16 7.828-5.5 10.5-24.333.667-48.667.667-73 0-2.925-2.077-4.758-4.91-5.5-8.5-2.865 2.728-4.365 6.062-4.5 10h-4a3629.664 3629.664 0 0 1-3-135h107Zm-103 4c.623 39.35 1.79 78.684 3.5 118l4-4 1-35 4.5-4.5 36-.5a370.105 370.105 0 0 1 38 1.5l3.5 3.5a613.783 613.783 0 0 0 1.5 35c2.594 1.092 4.761 2.759 6.5 5 .5-39.665.667-79.332.5-119h-99Z"/>
  <path style="opacity:1" d="M183.5 10.5c.999 45.83 1.332 91.83 1 138-1.599.268-2.932-.066-4-1h3v-137Z" fill="#344128"/>
  <path style="opacity:.899" fill="#010000" d="M93.5 23.5c23.676-.333 47.343 0 71 1a32.359 32.359 0 0 1 2.5 10 306.347 306.347 0 0 1 0 35c-.161 4.173-1.661 7.673-4.5 10.5-22 .667-44 .667-66 0-3.52-.504-6.02-2.337-7.5-5.5a529.224 529.224 0 0 1 0-46 32.832 32.832 0 0 1 4.5-5Z"/>
  <path style="opacity: 0.911; fill: rgb(249, 249, 249);" d="M193.5 23.5h30v252h-30v-252Zm4 4v9h21v-9h-21Zm0 26v9h21v-9c-7 1.333-14 1.333-21 0Zm0 26c-.165 3.35.002 6.683.5 10a108.41 108.41 0 0 1 20.5-1 21.128 21.128 0 0 0-1-9 53.73 53.73 0 0 1-20 0Zm0 26c-.165 3.35.002 6.683.5 10a50.512 50.512 0 0 1 20 0c.824-3.382.657-6.716-.5-10a52.005 52.005 0 0 1-20 0Zm0 26c-.165 3.35.002 6.683.5 10a50.512 50.512 0 0 1 20 0c.824-3.382.657-6.716-.5-10a52.005 52.005 0 0 1-20 0Zm0 26a25.879 25.879 0 0 0 1 10c6.53-1.318 13.03-1.318 19.5 0a25.238 25.238 0 0 0 0-10c-6.803 1.281-13.636 1.281-20.5 0Zm0 26a25.879 25.879 0 0 0 1 10 45.636 45.636 0 0 1 19 0c1.157-3.284 1.324-6.618.5-10a53.717 53.717 0 0 1-20.5 0Zm0 26a25.879 25.879 0 0 0 1 10 45.636 45.636 0 0 1 19 0c1.157-3.284 1.324-6.618.5-10a53.717 53.717 0 0 1-20.5 0Zm0 26v10a53.718 53.718 0 0 1 20 0 21.127 21.127 0 0 0 1-9 116.8 116.8 0 0 1-21-1Zm0 27v8h21v-8h-21Z"/>
  <path style="opacity:1" fill="#501c0b" d="M95.5 27.5c22.003-.167 44.003 0 66 .5 2.628 15.468 2.628 30.968 0 46.5a748.75 748.75 0 0 1-67 .5L93 73.5a462.477 462.477 0 0 1 0-43 10.521 10.521 0 0 0 2.5-3Z"/>
  <path style="opacity:1" fill="#090602" d="M157.5 36.5v30h-56v-30h56Z"/>
  <path style="opacity:1" fill="#baa55b" d="M156.5 39.5h-53v24c-.993-8.15-1.326-16.483-1-25 18.174-.33 36.174.003 54 1Z"/>
  <path style="opacity:1" fill="#d4d086" d="M155.5 39.5v23h-52v-23h52Z"/>
  <path style="opacity:1" fill="#214f0b" d="M199.5 40.5c5.676-.166 11.343 0 17 .5 3.976 2.716 3.976 5.383 0 8a72.496 72.496 0 0 1-17 0c-2.601-2.83-2.601-5.663 0-8.5Z"/>
  <path style="opacity:.988" fill="#efd475" d="M155.5 39.5h1v24h-53v-1h52v-23Z"/>
  <path style="opacity:1" fill="#371308" d="M157.5 36.5c.994 10.153 1.328 20.486 1 31a812.816 812.816 0 0 1-57-1h56v-30Z"/>
  <path style="opacity:1" fill="#214e0b" d="M199.5 66.5c5.676-.166 11.343 0 17 .5 3.976 2.716 3.976 5.383 0 8a72.496 72.496 0 0 1-17 0c-2.601-2.83-2.601-5.663 0-8.5Z"/>
  <path style="opacity:1" fill="#501c0b" d="M95.5 92.5c23.002-.167 46.002 0 69 .5l1.5 1.5a338.065 338.065 0 0 1-.5 45 849.26 849.26 0 0 1-71 .5l-1.5-1.5a462.477 462.477 0 0 1 0-43 10.521 10.521 0 0 0 2.5-3Z"/>
  <path style="opacity:1" fill="#214e0b" d="M199.5 92.5c5.676-.166 11.343 0 17 .5 1.944 2.153 2.444 4.653 1.5 7.5-6.084 1.142-12.251 1.309-18.5.5-2.601-2.83-2.601-5.663 0-8.5Z"/>
  <path style="opacity:1" fill="#280e05" d="M157.5 101.5c.994 10.153 1.328 20.486 1 31a813 813 0 0 1-57-1h56v-30Z"/>
  <path style="opacity:1" fill="#070301" d="M157.5 101.5v30h-56v-30h56Z"/>
  <path style="opacity:1" fill="#dac875" d="M102.5 103.5h54v25h-54v-25Z"/>
  <path style="opacity:1" fill="#d4d086" d="M104.5 105.5h51v22h-51v-22Z"/>
  <path style="opacity:1" fill="#214e0b" d="M200.5 118.5a112.97 112.97 0 0 1 15 .5c2.879 1.666 3.712 4.166 2.5 7.5-6.084 1.142-12.251 1.309-18.5.5-2.835-3.305-2.501-6.138 1-8.5Z"/>
  <path style="opacity:1" fill="#1f4a0b" d="M200.5 144.5a112.97 112.97 0 0 1 15 .5c2.879 1.666 3.712 4.166 2.5 7.5a9.454 9.454 0 0 1-2.5 1.5c-5 .667-10 .667-15 0-3.973-3.294-3.973-6.46 0-9.5Z"/>
  <path style="opacity:1" fill="#0c0804" d="M93.5 154.5c24.336-.167 48.669 0 73 .5l3.5 3.5a552.224 552.224 0 0 1 0 47c-1.378 2.608-3.545 4.108-6.5 4.5-23 .667-46 .667-69 0-3.163-1.48-4.996-3.98-5.5-7.5-.667-14-.667-28 0-42 .98-2.468 2.48-4.468 4.5-6Z"/>
  <path style="opacity:1" fill="#501c0b" d="M94.5 158.5c23.669-.167 47.336 0 71 .5a348.497 348.497 0 0 1 .5 45.5 9.454 9.454 0 0 1-2.5 1.5l-33.5.5a323.796 323.796 0 0 1-35.5-1.5l-1.5-1.5a462.477 462.477 0 0 1 0-43c.717-.544 1.217-1.211 1.5-2Z"/>
  <path style="opacity:1" fill="#280e05" d="M101.5 167.5a813 813 0 0 1 57-1v31a813 813 0 0 1-57-1h56v-29h-56Z"/>
  <path style="opacity:1" fill="#020000" d="M101.5 167.5h56v29h-56v-29Z"/>
  <path style="opacity:1" fill="#e3d37c" d="M102.5 169.5h53v24h-53v-24Z"/>
  <path style="opacity:1" fill="#d4d086" d="M103.5 170.5h51v22h-51v-22Z"/>
  <path style="opacity:1" fill="#214d0b" d="M198.5 171.5c6.342-.166 12.675 0 19 .5 1.775 3.394 1.108 6.06-2 8-5 .667-10 .667-15 0a9.454 9.454 0 0 1-2.5-1.5 11.596 11.596 0 0 1 .5-7Z"/>
  <path style="opacity:1" fill="#80713d" d="M102.5 169.5a729.55 729.55 0 0 1 54-1v26a729.55 729.55 0 0 1-54-1h53v-24h-53Z"/>
  <path style="opacity:1" fill="#214e0b" d="M199.5 197.5c6.009-.166 12.009.001 18 .5 1.775 3.394 1.108 6.06-2 8-5 .667-10 .667-15 0-3.632-2.347-3.965-5.18-1-8.5Z"/>
  <path style="opacity:1" fill="#0a0804" d="M93.5 219.5c24.336-.167 48.669 0 73 .5l3.5 3.5a552.224 552.224 0 0 1 0 47 14.51 14.51 0 0 1-4.5 4.5 864.828 864.828 0 0 1-72-.5c-2.495-1.649-3.995-3.983-4.5-7-.667-14-.667-28 0-42a40.775 40.775 0 0 1 4.5-6Z"/>
  <path style="opacity:1" fill="#501c0b" d="M94.5 223.5c23.712-.323 47.378.01 71 1a338.065 338.065 0 0 1 .5 45l-1.5 1.5c-23 .667-46 .667-69 0l-2.5-2.5a462.477 462.477 0 0 1 0-43c.717-.544 1.217-1.211 1.5-2Z"/>
  <path style="opacity:1" fill="#214e0b" d="M199.5 223.5c6.009-.166 12.009.001 18 .5 1.513 2.916 1.18 5.582-1 8a72.464 72.464 0 0 1-17 0c-2.601-2.83-2.601-5.663 0-8.5Z"/>
  <path style="opacity:1" fill="#371308" d="M101.5 232.5a813 813 0 0 1 57-1c.328 10.514-.006 20.847-1 31v-30h-56Z"/>
  <path style="opacity:1" fill="#0a0502" d="M101.5 232.5h56v30h-56v-30Z"/>
  <path style="opacity:1" fill="#214e0b" d="M199.5 249.5c5.676-.166 11.343.001 17 .5 3.976 2.617 3.976 5.284 0 8a72.464 72.464 0 0 1-17 0c-2.601-2.83-2.601-5.663 0-8.5Z"/>
  <path style="opacity:1" fill="#d4c16e" d="M103.5 234.5h53v25h-53v-25Z"/>
  <path style="opacity:1" fill="#d3d086" d="M104.5 236.5h51v22h-51v-22Z"/>
  <path style="opacity:1" fill="#4f4626" d="M103.5 234.5v25h53a729.55 729.55 0 0 1-54 1c-.326-8.849.007-17.516 1-26Z"/>
</svg>