<svg width="506.667" height="511.283" xmlns="http://www.w3.org/2000/svg"><defs><clipPath clipPathUnits="userSpaceOnUse" id="a"><path d="M0 3318h3318V0H0z" transform="translate(-1775.003 -1595.913)"/></clipPath><clipPath clipPathUnits="userSpaceOnUse" id="b"><path d="M0 3318h3318V0H0z" transform="translate(-1569.002 -1440.946)"/></clipPath><clipPath clipPathUnits="userSpaceOnUse" id="c"><path d="M0 3318h3318V0H0z" transform="translate(-1630.874 -1440.915)"/></clipPath><clipPath clipPathUnits="userSpaceOnUse" id="d"><path d="M0 3318h3318V0H0z" transform="translate(-1649.954 -1472)"/></clipPath><clipPath clipPathUnits="userSpaceOnUse" id="e"><path d="M0 3318h3318V0H0z" transform="translate(-1599.929 -1422)"/></clipPath><clipPath clipPathUnits="userSpaceOnUse" id="f"><path d="M0 3318h3318V0H0z" transform="translate(-1707.711 -1485.266)"/></clipPath><clipPath clipPathUnits="userSpaceOnUse" id="g"><path d="M0 3318h3318V0H0z" transform="translate(-1768.707 -1486.17)"/></clipPath><clipPath clipPathUnits="userSpaceOnUse" id="h"><path d="M0 3318h3318V0H0z" transform="translate(-1737.937 -1468)"/></clipPath></defs><path d="m0 0 10.531-.004C37.812.291 59.997 22.69 59.997 49.949c0 27.566-22.437 49.993-50.017 49.993-1.178 0-2.438-.077-3.514-.151a10.024 10.024 0 0 0-7.278 2.449 10.003 10.003 0 0 0-3.395 6.886c-2.894 45.097-40.599 80.423-85.84 80.423-30.339 0-57.858-15.51-73.614-41.489a10.004 10.004 0 0 0-7.366-4.745 10.01 10.01 0 0 0-8.275 2.878c-5.221 5.25-12.173 8.141-19.575 8.141-15.225 0-27.611-12.386-27.611-27.611 0-4.344.986-8.507 2.93-12.374a10.002 10.002 0 0 0-8.54-14.484c-26.862-1.06-47.905-22.965-47.905-49.867 0-27.521 22.303-49.911 49.717-49.911h10.283zm10.576-20.004L-.008-20l-230.278.087c-38.442 0-69.717 31.361-69.717 69.911 0 33.276 22.986 61.093 54.279 68.168a47.844 47.844 0 0 0-.764 8.557c0 26.253 21.358 47.611 47.611 47.611 8.72 0 17.077-2.326 24.369-6.687 19.982 26.425 50.814 41.902 84.461 41.902 52.584 0 96.909-38.729 104.778-89.766 36.403-2.449 65.266-32.834 65.266-69.834 0-38.196-31.097-69.577-69.318-69.952l-.103-.001" style="fill:#fff;fill-opacity:1;fill-rule:nonzero;stroke:none" transform="matrix(1.33333 0 0 -1.33333 400.004 279.399)" clip-path="url(#a)"/><path d="M0 0a9.97 9.97 0 0 0-7.075 2.933c-3.903 3.907-3.9 10.238.008 14.141l61.903 61.841c3.907 3.902 10.239 3.9 14.142-.007 3.903-3.907 3.9-10.238-.007-14.141L7.067 2.926A9.968 9.968 0 0 0 0 0" style="fill:#fff;fill-opacity:1;fill-rule:nonzero;stroke:none" transform="matrix(1.33333 0 0 -1.33333 125.337 486.021)" clip-path="url(#b)"/><path d="M0 0a9.97 9.97 0 0 0-7.075 2.933l-61.841 61.903c-3.903 3.907-3.899 10.238.008 14.142 3.908 3.902 10.239 3.9 14.142-.007L7.075 17.067c3.903-3.907 3.9-10.238-.008-14.141A9.968 9.968 0 0 0 0 0" style="fill:#fff;fill-opacity:1;fill-rule:nonzero;stroke:none" transform="matrix(1.33333 0 0 -1.33333 207.833 486.063)" clip-path="url(#c)"/><path d="M0 0h-.005l-100-.029c-5.523.003-9.998 4.497-9.995 10.019.003 5.522 4.479 10.01 10 10.01h.005l100-.104c5.523-.003 9.998-4.43 9.995-9.953C9.997 4.423 5.52 0 0 0" style="fill:#fff;fill-opacity:1;fill-rule:nonzero;stroke:none" transform="matrix(1.33333 0 0 -1.33333 233.272 444.616)" clip-path="url(#d)"/><path d="M0 0h-.005C-5.528 0-10.003 4.416-10 9.938l.051 100.034c.003 5.521 4.48 10.028 10 10.028h.005c5.523 0 9.998-4.549 9.995-10.071L10 9.962C9.997 4.44 5.52 0 0 0" style="fill:#fff;fill-opacity:1;fill-rule:nonzero;stroke:none" transform="matrix(1.33333 0 0 -1.33333 166.572 511.283)" clip-path="url(#e)"/><path d="M0 0a9.992 9.992 0 0 0-8.653 4.974c-2.778 4.773-1.16 10.894 3.615 13.672l60.506 35.199c4.774 2.781 10.895 1.159 13.672-3.616 2.777-4.773 1.159-10.894-3.616-13.671L5.019 1.358A9.947 9.947 0 0 0 0 0" style="fill:#fff;fill-opacity:1;fill-rule:nonzero;stroke:none" transform="matrix(1.33333 0 0 -1.33333 310.281 426.929)" clip-path="url(#f)"/><path d="M0 0a9.97 9.97 0 0 0-4.762 1.213l-61.523 33.391c-4.854 2.634-6.653 8.705-4.019 13.559 2.634 4.854 8.703 6.652 13.56 4.019L4.779 18.791c4.854-2.635 6.654-8.705 4.019-13.56A10 10 0 0 0 0 0" style="fill:#fff;fill-opacity:1;fill-rule:nonzero;stroke:none" transform="matrix(1.33333 0 0 -1.33333 391.61 425.723)" clip-path="url(#g)"/><path d="M0 0h-.005C-5.528 0-10.003 4.71-10 10.232l.035 68.798c.003 5.522 4.48 9.97 10 9.97H.04c5.523 0 9.998-4.343 9.995-9.866L10 10.153C9.997 4.632 5.521 0 0 0" style="fill:#fff;fill-opacity:1;fill-rule:nonzero;stroke:none" transform="matrix(1.33333 0 0 -1.33333 350.582 449.95)" clip-path="url(#h)"/></svg>
