<svg width="506.667" height="448.536" xmlns="http://www.w3.org/2000/svg"><defs><clipPath clipPathUnits="userSpaceOnUse" id="a"><path d="M0 3318h3318V0H0z" transform="translate(-715.58 -1553.91)"/></clipPath><clipPath clipPathUnits="userSpaceOnUse" id="b"><path d="M0 3318h3318V0H0z" transform="translate(-501.033 -1459.915)"/></clipPath><clipPath clipPathUnits="userSpaceOnUse" id="c"><path d="M0 3318h3318V0H0z" transform="translate(-602.958 -1495.06)"/></clipPath><clipPath clipPathUnits="userSpaceOnUse" id="d"><path d="M0 3318h3318V0H0z" transform="translate(-551.958 -1447.06)"/></clipPath><clipPath clipPathUnits="userSpaceOnUse" id="e"><path d="M0 3318h3318V0H0z" transform="translate(-460.958 -1480.06)"/></clipPath><clipPath clipPathUnits="userSpaceOnUse" id="f"><path d="M0 3318h3318V0H0z" transform="translate(-639.958 -1466.06)"/></clipPath></defs><path d="m0 0-10.584.004c-5.522.002-9.998 4.48-9.996 10.004.002 5.521 4.479 9.996 10 9.996h.004L-.044 20c27.279.295 49.464 22.693 49.464 49.953 0 27.566-22.437 49.993-50.016 49.993-1.179 0-2.439-.077-3.516-.152a9.999 9.999 0 0 0-10.672 9.336c-2.893 45.097-40.598 80.423-85.84 80.423-30.338 0-57.857-15.511-73.614-41.49a10.003 10.003 0 0 0-7.366-4.744 10.014 10.014 0 0 0-8.274 2.878c-5.222 5.25-12.174 8.141-19.576 8.141-15.225 0-27.611-12.386-27.611-27.611 0-4.344.986-8.507 2.93-12.374a10.002 10.002 0 0 0-8.54-14.484c-26.862-1.06-47.905-22.965-47.905-49.868 0-27.521 22.303-49.91 49.717-49.91h10.283c5.523 0 10-4.478 10-10 0-5.523-4.477-10-10-10h-10.283c-38.442 0-69.717 31.361-69.717 69.91 0 33.277 22.987 61.094 54.279 68.168a47.864 47.864 0 0 0-.764 8.558c0 26.253 21.358 47.611 47.611 47.611 8.721 0 17.078-2.326 24.369-6.687 19.982 26.425 50.814 41.902 84.461 41.902 52.585 0 96.91-38.729 104.778-89.766 36.402-2.449 65.266-32.834 65.266-69.834C69.42 31.757 38.324.376.102.001L0 0" style="fill:#fff;fill-opacity:1;fill-rule:nonzero;stroke:none" transform="matrix(1.33333 0 0 -1.33333 414.107 306.07)" clip-path="url(#a)"/><path d="M0 0a9.97 9.97 0 0 0-7.066 2.924c-3.908 3.902-3.913 10.234-.01 14.142l42.958 43.019H10a10 10 0 0 0-6.886 17.251l63 59.829c4.005 3.803 10.334 3.642 14.137-.365 3.803-4.004 3.64-10.334-.365-14.137L35.052 80.085H60a10 10 0 0 0 7.076-17.066l-60-60.085A9.971 9.971 0 0 0 0 0" style="fill:#ffff00;fill-opacity:1;fill-rule:nonzero;stroke:none" transform="matrix(1.33333 0 0 -1.33333 128.045 431.396)" clip-path="url(#b)"/><path d="M0 0a9.97 9.97 0 0 0-7.075 2.933c-3.903 3.907-3.9 10.238.008 14.141l42.908 42.865H10a10.001 10.001 0 0 0-6.904 17.235l63 60.121c3.996 3.812 10.325 3.665 14.138-.331 3.813-3.995 3.665-10.325-.33-14.138L34.963 79.939H60a9.999 9.999 0 0 0 7.067-17.074l-60-59.939A9.968 9.968 0 0 0 0 0" style="fill:#ffff00;fill-opacity:1;fill-rule:nonzero;stroke:none" transform="matrix(1.33333 0 0 -1.33333 263.945 384.536)" clip-path="url(#c)"/><path d="M0 0a9.97 9.97 0 0 0-7.075 2.933c-3.903 3.907-3.9 10.239.008 14.141l25.042 25.017c3.907 3.903 10.238 3.9 14.142-.007 3.903-3.907 3.9-10.239-.008-14.142L7.067 2.926A9.97 9.97 0 0 0 0 0" style="fill:#8888ff;fill-opacity:1;fill-rule:nonzero;stroke:none" transform="matrix(1.33333 0 0 -1.33333 195.945 448.536)" clip-path="url(#d)"/><path d="M0 0a9.97 9.97 0 0 0-7.075 2.933c-3.903 3.907-3.9 10.238.008 14.141L8.725 32.851c3.907 3.902 10.238 3.899 14.142-.007 3.903-3.907 3.9-10.239-.008-14.142L7.067 2.926A9.968 9.968 0 0 0 0 0" style="fill:#8888ff;fill-opacity:1;fill-rule:nonzero;stroke:none" transform="matrix(1.33333 0 0 -1.33333 74.611 404.536)" clip-path="url(#e)"/><path d="M0 0a9.97 9.97 0 0 0-7.075 2.933c-3.903 3.907-3.9 10.238.008 14.141l51.992 51.94c3.907 3.903 10.239 3.9 14.142-.007 3.903-3.907 3.9-10.238-.007-14.142L7.067 2.926A9.97 9.97 0 0 0 0 0" style="fill:#8888ff;fill-opacity:1;fill-rule:nonzero;stroke:none" transform="matrix(1.33333 0 0 -1.33333 313.278 423.202)" clip-path="url(#f)"/></svg>
