<svg width="506.999" height="463.202" xmlns="http://www.w3.org/2000/svg"><defs><clipPath clipPathUnits="userSpaceOnUse" id="f"><path d="M0 3318h3318V0H0z" transform="translate(-644.937 -945)"/></clipPath><clipPath clipPathUnits="userSpaceOnUse" id="a"><path d="M0 3318h3318V0H0z" transform="translate(-519.71 -928.266)"/></clipPath><clipPath clipPathUnits="userSpaceOnUse" id="c"><path d="M0 3318h3318V0H0z" transform="translate(-549.937 -911)"/></clipPath><clipPath clipPathUnits="userSpaceOnUse" id="d"><path d="M0 3318h3318V0H0z" transform="translate(-614.71 -962.266)"/></clipPath><clipPath clipPathUnits="userSpaceOnUse" id="e"><path d="M0 3318h3318V0H0z" transform="translate(-675.707 -963.17)"/></clipPath><clipPath clipPathUnits="userSpaceOnUse" id="b"><path d="M0 3318h3318V0H0z" transform="translate(-580.707 -929.17)"/></clipPath><clipPath clipPathUnits="userSpaceOnUse" id="g"><path d="M0 3318h3318V0H0z" transform="translate(-532.958 -846.06)"/></clipPath><clipPath clipPathUnits="userSpaceOnUse" id="h"><path d="M0 3318h3318V0H0z" transform="translate(-483.958 -879.06)"/></clipPath><clipPath clipPathUnits="userSpaceOnUse" id="i"><path d="M0 3318h3318V0H0z" transform="translate(-598.958 -894.06)"/></clipPath><clipPath clipPathUnits="userSpaceOnUse" id="j"><path d="M0 3318h3318V0H0z" transform="translate(-639.958 -876.06)"/></clipPath><clipPath clipPathUnits="userSpaceOnUse" id="k"><path d="M0 3318h3318V0H0z" transform="translate(-716.08 -963.91)"/></clipPath></defs><path d="M0 0a9.995 9.995 0 0 0-8.653 4.974c-2.777 4.773-1.159 10.894 3.615 13.672l60.507 35.199c4.772 2.779 10.895 1.159 13.672-3.616 2.777-4.773 1.158-10.894-3.616-13.671L5.019 1.358A9.945 9.945 0 0 0 0 0" style="fill:#ff0000;fill-opacity:1;fill-rule:nonzero;stroke:none" transform="matrix(1.33333 0 0 -1.33333 152.946 353.595)" clip-path="url(#a)"/><path d="M0 0a9.96 9.96 0 0 0-4.761 1.213l-61.523 33.391c-4.854 2.634-6.654 8.705-4.019 13.559 2.635 4.854 8.705 6.651 13.559 4.019L4.779 18.791c4.854-2.635 6.653-8.705 4.019-13.56A10 10 0 0 0 0 0" style="fill:#ff0000;fill-opacity:1;fill-rule:nonzero;stroke:none" transform="matrix(1.33333 0 0 -1.33333 234.275 352.39)" clip-path="url(#b)"/><path d="M0 0h-.005C-5.528 0-10.003 4.71-10 10.232l.035 68.798c.003 5.522 4.48 9.97 10 9.97H.04c5.523 0 9.998-4.343 9.995-9.866L10 10.153C9.997 4.632 5.52 0 0 0" style="fill:#ff0000;fill-opacity:1;fill-rule:nonzero;stroke:none" transform="matrix(1.33333 0 0 -1.33333 193.248 376.616)" clip-path="url(#c)"/><path d="M0 0a9.995 9.995 0 0 0-8.653 4.974c-2.777 4.773-1.159 10.894 3.615 13.672l60.507 35.199c4.772 2.779 10.894 1.16 13.672-3.616 2.777-4.773 1.158-10.894-3.616-13.671L5.019 1.358A9.945 9.945 0 0 0 0 0" style="fill:#ff0000;fill-opacity:1;fill-rule:nonzero;stroke:none" transform="matrix(1.33333 0 0 -1.33333 279.613 308.262)" clip-path="url(#d)"/><path d="M0 0a9.96 9.96 0 0 0-4.761 1.213l-61.523 33.391c-4.854 2.634-6.654 8.705-4.019 13.559 2.635 4.854 8.705 6.652 13.559 4.019L4.779 18.791c4.854-2.635 6.653-8.705 4.019-13.56A10 10 0 0 0 0 0" style="fill:#ff0000;fill-opacity:1;fill-rule:nonzero;stroke:none" transform="matrix(1.33333 0 0 -1.33333 360.942 307.056)" clip-path="url(#e)"/><path d="M0 0h-.005C-5.528 0-10.003 4.71-10 10.232l.035 68.798c.003 5.522 4.48 9.97 10 9.97H.04c5.523 0 9.998-4.343 9.995-9.866L10 10.153C9.997 4.632 5.52 0 0 0" style="fill:#ff0000;fill-opacity:1;fill-rule:nonzero;stroke:none" transform="matrix(1.33333 0 0 -1.33333 319.915 331.283)" clip-path="url(#f)"/><path d="M0 0a9.97 9.97 0 0 0-7.075 2.933c-3.903 3.907-3.9 10.239.008 14.141l25.042 25.017c3.907 3.903 10.238 3.9 14.142-.007 3.903-3.907 3.9-10.239-.008-14.142L7.067 2.926A9.97 9.97 0 0 0 0 0" style="fill:#8888ff;fill-opacity:1;fill-rule:nonzero;stroke:none" transform="matrix(1.33333 0 0 -1.33333 170.61 463.202)" clip-path="url(#g)"/><path d="M0 0a9.97 9.97 0 0 0-7.075 2.933c-3.903 3.907-3.9 10.238.008 14.141L8.725 32.851c3.907 3.902 10.238 3.9 14.142-.007 3.903-3.907 3.9-10.239-.008-14.142L7.067 2.926A9.968 9.968 0 0 0 0 0" style="fill:#8888ff;fill-opacity:1;fill-rule:nonzero;stroke:none" transform="matrix(1.33333 0 0 -1.33333 105.277 419.202)" clip-path="url(#h)"/><path d="M0 0a9.97 9.97 0 0 0-7.075 2.933c-3.903 3.907-3.9 10.238.008 14.141L8.725 32.851c3.907 3.902 10.239 3.9 14.142-.007 3.903-3.907 3.9-10.239-.008-14.142L7.067 2.926A9.968 9.968 0 0 0 0 0" style="fill:#8888ff;fill-opacity:1;fill-rule:nonzero;stroke:none" transform="matrix(1.33333 0 0 -1.33333 258.61 399.202)" clip-path="url(#i)"/><path d="M0 0a9.97 9.97 0 0 0-7.075 2.933c-3.903 3.907-3.9 10.238.008 14.141l51.992 51.94c3.907 3.903 10.239 3.9 14.142-.007 3.903-3.907 3.9-10.238-.007-14.142L7.067 2.926A9.97 9.97 0 0 0 0 0" style="fill:#8888ff;fill-opacity:1;fill-rule:nonzero;stroke:none" transform="matrix(1.33333 0 0 -1.33333 313.277 423.202)" clip-path="url(#j)"/><path d="m0 0-10.084.004c-5.523.002-9.998 4.481-9.996 10.004.002 5.521 4.479 9.996 10 9.996h.004L-.044 20c13.213.144 25.585 5.386 34.838 14.766 9.27 9.398 14.376 21.894 14.376 35.187 0 27.566-22.493 49.992-50.141 49.992-1.261 0-2.646-.086-3.578-.15a9.961 9.961 0 0 0-7.277 2.449 10.004 10.004 0 0 0-3.396 6.886c-2.892 45.097-40.611 80.423-85.871 80.423-30.348 0-57.873-15.51-73.629-41.49a10.005 10.005 0 0 0-7.366-4.744 10.017 10.017 0 0 0-8.275 2.878c-5.22 5.25-12.176 8.141-19.583 8.141-15.227 0-27.615-12.386-27.615-27.61 0-4.347.985-8.51 2.928-12.374a10.001 10.001 0 0 0-8.54-14.485c-26.863-1.06-47.906-22.966-47.906-49.868 0-27.521 22.303-49.91 49.716-49.91h12.283c5.523 0 10-4.478 10-10 0-5.523-4.477-10-10-10h-12.283c-38.441 0-69.716 31.361-69.716 69.91 0 33.276 22.989 61.095 54.281 68.169a47.847 47.847 0 0 0-.763 8.558c0 26.252 21.36 47.61 47.615 47.61 8.724 0 17.084-2.326 24.377-6.687 19.983 26.425 50.82 41.902 84.476 41.902 52.598 0 96.935-38.73 104.809-89.762 36.5-2.414 65.454-32.815 65.454-69.838 0-18.583-7.151-36.067-20.138-49.232C36.031 7.542 18.654.183.102.001L0 0" style="fill:#ffffff;fill-opacity:1;fill-rule:nonzero;stroke:none" transform="matrix(1.33333 0 0 -1.33333 414.772 306.07)" clip-path="url(#k)"/></svg>
