<svg width="506.667" height="506.667" xmlns="http://www.w3.org/2000/svg"><defs><clipPath clipPathUnits="userSpaceOnUse" id="a"><path d="M0 3318h3318V0H0z" transform="translate(-1125.098 -2323.902)"/></clipPath><clipPath clipPathUnits="userSpaceOnUse" id="b"><path d="M0 3318h3318V0H0z" transform="translate(-1125 -2360)"/></clipPath><clipPath clipPathUnits="userSpaceOnUse" id="c"><path d="M0 3318h3318V0H0z" transform="translate(-1125 -2054)"/></clipPath><clipPath clipPathUnits="userSpaceOnUse" id="d"><path d="M0 3318h3318V0H0z" transform="translate(-999 -2234)"/></clipPath><clipPath clipPathUnits="userSpaceOnUse" id="e"><path d="M0 3318h3318V0H0z" transform="translate(-1305 -2234)"/></clipPath><clipPath clipPathUnits="userSpaceOnUse" id="f"><path d="M0 3318h3318V0H0z" transform="translate(-1213.542 -2322.542)"/></clipPath><clipPath clipPathUnits="userSpaceOnUse" id="g"><path d="M0 3318h3318V0H0z" transform="translate(-997.72 -2106.72)"/></clipPath><clipPath clipPathUnits="userSpaceOnUse" id="h"><path d="M0 3318h3318V0H0z" transform="translate(-1036.458 -2322.542)"/></clipPath><clipPath clipPathUnits="userSpaceOnUse" id="i"><path d="M0 3318h3318V0H0z" transform="translate(-1252.28 -2106.72)"/></clipPath></defs><path d="M0 0c-44.112 0-80-35.888-80-80s35.888-80 80-80 80 35.888 80 80S44.112 0 0 0m0-180c-55.14 0-100 44.86-100 100S-55.14 20 0 20 100-24.86 100-80 55.14-180 0-180" style="fill:#ffff00;fill-opacity:1;fill-rule:nonzero;stroke:none" transform="matrix(1.33333 0 0 -1.33333 253.464 146.797)" clip-path="url(#a)"/><path d="M0 0c-5.523 0-10 4.477-10 10v54c0 5.523 4.477 10 10 10s10-4.477 10-10V10C10 4.477 5.523 0 0 0" style="fill:#ffff00;fill-opacity:1;fill-rule:nonzero;stroke:none" transform="matrix(1.33333 0 0 -1.33333 253.333 98.667)" clip-path="url(#b)"/><path d="M0 0c-5.523 0-10 4.477-10 10v54c0 5.523 4.477 10 10 10s10-4.477 10-10V10C10 4.477 5.523 0 0 0" style="fill:#ffff00;fill-opacity:1;fill-rule:nonzero;stroke:none" transform="matrix(1.33333 0 0 -1.33333 253.333 506.667)" clip-path="url(#c)"/><path d="M0 0h-54c-5.523 0-10 4.477-10 10s4.477 10 10 10H0c5.523 0 10-4.477 10-10S5.523 0 0 0" style="fill:#ffff00;fill-opacity:1;fill-rule:nonzero;stroke:none" transform="matrix(1.33333 0 0 -1.33333 85.333 266.667)" clip-path="url(#d)"/><path d="M0 0h-54c-5.523 0-10 4.477-10 10s4.477 10 10 10H0c5.523 0 10-4.477 10-10S5.523 0 0 0" style="fill:#ffff00;fill-opacity:1;fill-rule:nonzero;stroke:none" transform="matrix(1.33333 0 0 -1.33333 493.333 266.667)" clip-path="url(#e)"/><path d="M0 0a9.966 9.966 0 0 0-7.071 2.929c-3.905 3.905-3.905 10.237 0 14.142l38.737 38.738c3.905 3.905 10.237 3.905 14.143 0 3.904-3.906 3.904-10.238 0-14.143L7.071 2.929A9.966 9.966 0 0 0 0 0" style="fill:#ffff00;fill-opacity:1;fill-rule:nonzero;stroke:none" transform="matrix(1.33333 0 0 -1.33333 371.39 148.61)" clip-path="url(#f)"/><path d="M0 0a9.966 9.966 0 0 0-7.071 2.929c-3.905 3.905-3.905 10.237 0 14.142l38.737 38.738c3.905 3.905 10.237 3.905 14.143 0 3.904-3.906 3.904-10.238 0-14.143L7.071 2.929A9.966 9.966 0 0 0 0 0" style="fill:#ffff00;fill-opacity:1;fill-rule:nonzero;stroke:none" transform="matrix(1.33333 0 0 -1.33333 83.628 436.372)" clip-path="url(#g)"/><path d="M0 0a9.966 9.966 0 0 0-7.071 2.929l-38.738 38.737c-3.904 3.905-3.904 10.237 0 14.143 3.906 3.905 10.238 3.905 14.143 0L7.071 17.071c3.905-3.905 3.905-10.237 0-14.142A9.966 9.966 0 0 0 0 0" style="fill:#ffff00;fill-opacity:1;fill-rule:nonzero;stroke:none" transform="matrix(1.33333 0 0 -1.33333 135.277 148.61)" clip-path="url(#h)"/><path d="M0 0a9.966 9.966 0 0 0-7.071 2.929l-38.738 38.737c-3.904 3.905-3.904 10.237 0 14.143 3.906 3.905 10.238 3.905 14.143 0L7.071 17.071c3.905-3.905 3.905-10.237 0-14.142A9.966 9.966 0 0 0 0 0" style="fill:#ffff00;fill-opacity:1;fill-rule:nonzero;stroke:none" transform="matrix(1.33333 0 0 -1.33333 423.04 436.372)" clip-path="url(#i)"/></svg>
