<svg width="506.667" height="448.535" xmlns="http://www.w3.org/2000/svg"><defs><clipPath clipPathUnits="userSpaceOnUse" id="a"><path d="M0 3318h3318V0H0z" transform="translate(-1235.003 -1573.913)"/></clipPath><clipPath clipPathUnits="userSpaceOnUse" id="b"><path d="M0 3318h3318V0H0z" transform="translate(-1089.958 -1447.06)"/></clipPath><clipPath clipPathUnits="userSpaceOnUse" id="c"><path d="M0 3318h3318V0H0z" transform="translate(-1002.958 -1504.06)"/></clipPath><clipPath clipPathUnits="userSpaceOnUse" id="d"><path d="M0 3318h3318V0H0z" transform="translate(-1141.958 -1504.06)"/></clipPath><clipPath clipPathUnits="userSpaceOnUse" id="e"><path d="M0 3318h3318V0H0z" transform="translate(-1186.958 -1478.898)"/></clipPath><clipPath clipPathUnits="userSpaceOnUse" id="f"><path d="M0 3318h3318V0H0z" transform="translate(-1035.958 -1467.898)"/></clipPath></defs><path d="m0 0 10.532-.004c27.28.295 49.465 22.693 49.465 49.953 0 27.566-22.438 49.993-50.017 49.993-1.179 0-2.438-.077-3.516-.151a10 10 0 0 0-10.672 9.335c-2.893 45.097-40.598 80.423-85.84 80.423-30.338 0-57.857-15.51-73.614-41.489a10 10 0 0 0-15.64-1.867c-5.221 5.25-12.174 8.141-19.576 8.141-15.225 0-27.611-12.386-27.611-27.611 0-4.344.986-8.507 2.93-12.374a10 10 0 0 0-8.54-14.484c-26.862-1.06-47.904-22.965-47.904-49.867 0-27.521 22.302-49.911 49.716-49.911h10.284zm10.576-20.004L-.008-20l-230.279.087c-38.442 0-69.716 31.361-69.716 69.911 0 33.276 22.986 61.093 54.278 68.168a47.844 47.844 0 0 0-.764 8.557c0 26.253 21.358 47.611 47.611 47.611 8.721 0 17.078-2.326 24.369-6.687 19.983 26.425 50.814 41.902 84.461 41.902 52.585 0 96.91-38.729 104.778-89.766 36.402-2.449 65.267-32.834 65.267-69.834 0-38.196-31.097-69.577-69.319-69.952l-.102-.001" style="fill:#fff;fill-opacity:1;fill-rule:nonzero;stroke:none" transform="matrix(1.33333 0 0 -1.33333 400.004 279.399)" clip-path="url(#a)"/><path d="M0 0a9.97 9.97 0 0 0-7.075 2.933c-3.903 3.907-3.9 10.239.008 14.141l25.042 25.017c3.907 3.903 10.239 3.9 14.142-.007 3.903-3.907 3.9-10.239-.008-14.142L7.067 2.926A9.97 9.97 0 0 0 0 0" style="fill:#8fe3ff;fill-opacity:1;fill-rule:nonzero;stroke:none" transform="matrix(1.33333 0 0 -1.33333 206.61 448.535)" clip-path="url(#b)"/><path d="M0 0a9.97 9.97 0 0 0-7.075 2.933c-3.903 3.907-3.9 10.238.008 14.141L8.725 32.851c3.907 3.903 10.238 3.9 14.142-.007 3.903-3.907 3.9-10.239-.008-14.142L7.067 2.926A9.968 9.968 0 0 0 0 0" style="fill:#8fe3ff;fill-opacity:1;fill-rule:nonzero;stroke:none" transform="matrix(1.33333 0 0 -1.33333 90.61 372.535)" clip-path="url(#c)"/><path d="M0 0a9.97 9.97 0 0 0-7.075 2.933c-3.903 3.907-3.9 10.238.008 14.141L8.725 32.851c3.907 3.903 10.238 3.9 14.142-.007 3.903-3.907 3.9-10.239-.008-14.142L7.067 2.926A9.968 9.968 0 0 0 0 0" style="fill:#8fe3ff;fill-opacity:1;fill-rule:nonzero;stroke:none" transform="matrix(1.33333 0 0 -1.33333 275.943 372.535)" clip-path="url(#d)"/><path d="M0 0a9.967 9.967 0 0 0-7.076 2.934c-3.903 3.907-3.898 10.239.01 14.141l40.992 40.94c3.907 3.903 10.239 3.899 14.142-.009 3.903-3.907 3.898-10.239-.009-14.142L7.066 2.925A9.967 9.967 0 0 0 0 0" style="fill:#8fe3ff;fill-opacity:1;fill-rule:nonzero;stroke:none" transform="matrix(1.33333 0 0 -1.33333 335.943 406.086)" clip-path="url(#e)"/><path d="M0 0a9.97 9.97 0 0 0-7.075 2.933c-3.903 3.907-3.9 10.238.008 14.141l51.992 51.94c3.907 3.903 10.239 3.9 14.142-.007 3.903-3.907 3.9-10.238-.007-14.142L7.067 2.926A9.97 9.97 0 0 0 0 0" style="fill:#8fe3ff;fill-opacity:1;fill-rule:nonzero;stroke:none" transform="matrix(1.33333 0 0 -1.33333 134.61 420.753)" clip-path="url(#f)"/></svg>

