<svg width="612.999" height="559.999" xmlns="http://www.w3.org/2000/svg"><defs><clipPath clipPathUnits="userSpaceOnUse" id="a"><path d="M0 3318h3318V0H0z" transform="translate(-1762.798 -2194)"/></clipPath><clipPath clipPathUnits="userSpaceOnUse" id="b"><path d="M0 3318h3318V0H0z" transform="translate(-1706 -2390)"/></clipPath><clipPath clipPathUnits="userSpaceOnUse" id="c"><path d="M0 3318h3318V0H0z" transform="translate(-1580 -2264)"/></clipPath><clipPath clipPathUnits="userSpaceOnUse" id="d"><path d="M0 3318h3318V0H0z" transform="translate(-1886 -2264)"/></clipPath><clipPath clipPathUnits="userSpaceOnUse" id="e"><path d="M0 3318h3318V0H0z" transform="translate(-1794.542 -2352.542)"/></clipPath><clipPath clipPathUnits="userSpaceOnUse" id="f"><path d="M0 3318h3318V0H0z" transform="translate(-1617.458 -2352.542)"/></clipPath><clipPath clipPathUnits="userSpaceOnUse" id="g"><path d="M0 3318h3318V0H0z" transform="translate(-1833.28 -2136.72)"/></clipPath><clipPath clipPathUnits="userSpaceOnUse" id="h"><path d="M0 3318h3318V0H0z" transform="translate(-1537.376 -2218.439)"/></clipPath></defs><path d="M0 0a9.982 9.982 0 0 0-7.769 3.697c-3.481 4.287-2.828 10.585 1.459 14.066 18.818 15.281 29.61 37.93 29.61 62.14 0 44.112-35.888 80-80 80-40.803 0-74.981-30.528-79.502-71.011-.612-5.489-5.557-9.439-11.048-8.829-5.488.613-9.441 5.559-8.828 11.048 5.652 50.619 48.375 88.792 99.378 88.792 55.14 0 100-44.86 100-100 0-30.261-13.487-58.57-37.002-77.665A9.956 9.956 0 0 0 0 0" style="fill:#ffff00;fill-opacity:1;fill-rule:nonzero;stroke:none" transform="matrix(1.33333 0 0 -1.33333 435.397 360)" clip-path="url(#a)"/><path d="M0 0c-5.522 0-10 4.477-10 10v54c0 5.523 4.478 10 10 10s10-4.477 10-10V10C10 4.477 5.522 0 0 0" style="fill:#ffff00;fill-opacity:1;fill-rule:nonzero;stroke:none" transform="matrix(1.33333 0 0 -1.33333 359.666 98.667)" clip-path="url(#b)"/><path d="M0 0h-54c-5.523 0-10 4.477-10 10s4.477 10 10 10H0c5.523 0 10-4.477 10-10S5.523 0 0 0" style="fill:#ffff00;fill-opacity:1;fill-rule:nonzero;stroke:none" transform="matrix(1.33333 0 0 -1.33333 191.666 266.667)" clip-path="url(#c)"/><path d="M0 0h-54c-5.522 0-10 4.477-10 10s4.478 10 10 10H0c5.522 0 10-4.477 10-10S5.522 0 0 0" style="fill:#ffff00;fill-opacity:1;fill-rule:nonzero;stroke:none" transform="matrix(1.33333 0 0 -1.33333 599.666 266.667)" clip-path="url(#d)"/><path d="M0 0c-2.56 0-5.118.976-7.071 2.929-3.906 3.905-3.906 10.237 0 14.142l38.737 38.738c3.906 3.905 10.236 3.905 14.143 0 3.905-3.906 3.905-10.238 0-14.143L7.071 2.929A9.966 9.966 0 0 0 0 0" style="fill:#ffff00;fill-opacity:1;fill-rule:nonzero;stroke:none" transform="matrix(1.33333 0 0 -1.33333 477.722 148.61)" clip-path="url(#e)"/><path d="M0 0a9.966 9.966 0 0 0-7.071 2.929l-38.738 38.737c-3.904 3.905-3.904 10.237 0 14.143 3.906 3.905 10.238 3.905 14.143 0L7.071 17.071c3.905-3.905 3.905-10.237 0-14.142A9.966 9.966 0 0 0 0 0" style="fill:#ffff00;fill-opacity:1;fill-rule:nonzero;stroke:none" transform="matrix(1.33333 0 0 -1.33333 241.61 148.61)" clip-path="url(#f)"/><path d="M0 0c-2.56 0-5.118.976-7.071 2.929l-38.738 38.737c-3.905 3.905-3.905 10.237 0 14.143 3.907 3.905 10.237 3.905 14.143 0L7.071 17.071c3.906-3.905 3.906-10.237 0-14.142A9.966 9.966 0 0 0 0 0" style="fill:#ffff00;fill-opacity:1;fill-rule:nonzero;stroke:none" transform="matrix(1.33333 0 0 -1.33333 529.372 436.372)" clip-path="url(#g)"/><path d="M0 0c-15.225 0-27.611-12.386-27.611-27.61 0-4.344.986-8.507 2.93-12.374a10 10 0 0 0-8.54-14.484c-26.862-1.061-47.904-23.008-47.904-49.964 0-27.393 22.332-49.826 49.782-50.006l240.801.004c27.204.269 49.417 22.7 49.417 50.002 0 27.579-22.438 50.017-50.017 50.017-1.027 0-2.145-.044-3.515-.14a10.025 10.025 0 0 0-7.277 2.45 9.998 9.998 0 0 0-3.396 6.886c-2.893 45.1-40.598 80.428-85.84 80.428-30.34 0-57.859-15.508-73.614-41.485a10 10 0 0 0-15.64-1.867C14.354-2.892 7.401 0 0 0m-31.409-174.438c-38.471.253-69.716 31.658-69.716 70.006 0 33.324 22.986 61.18 54.278 68.263a47.858 47.858 0 0 0-.764 8.559C-47.611-1.358-26.253 20 0 20c8.72 0 17.078-2.327 24.37-6.688 19.981 26.423 50.812 41.897 84.46 41.897 52.588 0 96.916-38.738 104.781-89.784 36.398-2.452 65.264-32.847 65.264-69.857 0-38.222-31.096-69.625-69.319-70.001z" style="fill:#fff;fill-opacity:1;fill-rule:nonzero;stroke:none" transform="matrix(1.33333 0 0 -1.33333 134.833 327.415)" clip-path="url(#h)"/></svg>
