<?xml version="1.0" encoding="utf-8"?>
<svg fill="#000000" height="800px" width="800px" version="1.1" id="Layer_1" xmlns="http://www.w3.org/2000/svg" viewBox="0 0 299.92 299.92">
  <g style="transform-origin: 149.96px 149.96px;" transform="matrix(0, -1, 1, 0, 0, -0.000016)">
    <g>
      <g>
        <path d="M 293.4 65.2 L 6.52 65.2 C 2.914 65.2 0 68.114 0 71.72 L 0 189.08 C 0 192.686 2.914 195.6 6.52 195.6 L 13.04 195.6 L 13.04 228.2 C 13.04 231.806 15.954 234.72 19.56 234.72 L 280.36 234.72 C 283.966 234.72 286.88 231.806 286.88 228.2 L 286.88 195.6 L 293.4 195.6 C 297.006 195.6 299.92 192.686 299.92 189.08 L 299.92 71.72 C 299.92 68.114 297.006 65.2 293.4 65.2 Z M 273.84 221.68 L 254.28 221.68 L 228.2 221.68 L 202.12 221.68 L 176.04 221.68 L 149.96 221.68 L 123.88 221.68 L 97.8 221.68 L 71.72 221.68 L 45.64 221.68 L 26.08 221.68 L 26.08 195.6 L 45.64 195.6 L 71.72 195.6 L 97.8 195.6 L 123.88 195.6 L 149.96 195.6 L 176.04 195.6 L 202.12 195.6 L 228.2 195.6 L 254.28 195.6 L 273.84 195.6 L 273.84 221.68 Z M 286.88 182.56 L 280.36 183.804 C 280.36 183.804 260.002 180.071 222.634 182.56 C 234.9 181.735 222.677 182.138 222.676 182.138 C 251.442 184.535 260.434 83.054 222.657 79.906 L 286.88 78.24 L 286.88 182.56 Z" style="stroke: rgb(0, 0, 0); stroke-width: 4px; fill: rgb(178, 95, 74);"/>
        <path d="M52.16,215.16v-13.04c0-3.606-2.914-6.52-6.52-6.52c-3.606,0-6.52,2.914-6.52,6.52v13.04c0,3.606,2.914,6.52,6.52,6.52 C49.246,221.68,52.16,218.766,52.16,215.16z" style="fill: rgb(35, 82, 12);stroke: rgb(0, 0, 0); stroke-width: 4px;"/>
        <path d="M78.24,215.16v-13.04c0-3.606-2.914-6.52-6.52-6.52c-3.606,0-6.52,2.914-6.52,6.52v13.04c0,3.606,2.914,6.52,6.52,6.52 C75.326,221.68,78.24,218.766,78.24,215.16z" style="fill: rgb(35, 82, 12);stroke: rgb(0, 0, 0); stroke-width: 4px;"/>
        <path d="M104.32,215.16v-13.04c0-3.606-2.914-6.52-6.52-6.52c-3.606,0-6.52,2.914-6.52,6.52v13.04c0,3.606,2.914,6.52,6.52,6.52 C101.406,221.68,104.32,218.766,104.32,215.16z" style="fill: rgb(35, 82, 12);stroke: rgb(0, 0, 0); stroke-width: 4px;"/>
        <path d="M130.4,215.16v-13.04c0-3.606-2.914-6.52-6.52-6.52c-3.606,0-6.52,2.914-6.52,6.52v13.04c0,3.606,2.914,6.52,6.52,6.52 C127.486,221.68,130.4,218.766,130.4,215.16z" style="fill: rgb(35, 82, 12);stroke: rgb(0, 0, 0); stroke-width: 4px;"/>
        <path d="M156.48,215.16v-13.04c0-3.606-2.914-6.52-6.52-6.52s-6.52,2.914-6.52,6.52v13.04c0,3.606,2.914,6.52,6.52,6.52 S156.48,218.766,156.48,215.16z" style="fill: rgb(35, 82, 12);stroke: rgb(0, 0, 0); stroke-width: 4px;"/>
        <path d="M182.56,215.16v-13.04c0-3.606-2.914-6.52-6.52-6.52c-3.606,0-6.52,2.914-6.52,6.52v13.04c0,3.606,2.914,6.52,6.52,6.52 C179.646,221.68,182.56,218.766,182.56,215.16z" style="fill: rgb(35, 82, 12);stroke: rgb(0, 0, 0); stroke-width: 4px;"/>
        <path d="M208.64,215.16v-13.04c0-3.606-2.914-6.52-6.52-6.52c-3.606,0-6.52,2.914-6.52,6.52v13.04c0,3.606,2.914,6.52,6.52,6.52 C205.726,221.68,208.64,218.766,208.64,215.16z" style="fill: rgb(35, 82, 12);stroke: rgb(0, 0, 0); stroke-width: 4px;"/>
        <path d="M234.72,215.16v-13.04c0-3.606-2.914-6.52-6.52-6.52c-3.606,0-6.52,2.914-6.52,6.52v13.04c0,3.606,2.914,6.52,6.52,6.52 C231.806,221.68,234.72,218.766,234.72,215.16z" style="fill: rgb(35, 82, 12);stroke: rgb(0, 0, 0); stroke-width: 4px;"/>
        <path d="M260.8,215.16v-13.04c0-3.606-2.914-6.52-6.52-6.52c-3.606,0-6.52,2.914-6.52,6.52v13.04c0,3.606,2.914,6.52,6.52,6.52 C257.886,221.68,260.8,218.766,260.8,215.16z" style="fill: rgb(35, 82, 12);stroke: rgb(0, 0, 0); stroke-width: 4px;"/>
        <path d="M32.6,169.52h39.12c3.606,0,6.52-2.914,6.52-6.52V97.8c0-3.606-2.914-6.52-6.52-6.52H32.6c-3.606,0-6.52,2.914-6.52,6.52 V163C26.08,166.606,28.994,169.52,32.6,169.52z M39.12,104.32H65.2v52.16H39.12V104.32z" style="fill: rgb(82, 29, 12);stroke: rgb(0, 0, 0); stroke-width: 4px;"/>
        <path d="M97.8,169.52h39.12c3.606,0,6.52-2.914,6.52-6.52V97.8c0-3.606-2.914-6.52-6.52-6.52H97.8c-3.606,0-6.52,2.914-6.52,6.52 V163C91.28,166.606,94.194,169.52,97.8,169.52z M104.32,104.32h26.08v52.16h-26.08V104.32z" style="fill: rgb(82, 29, 12);stroke: rgb(0, 0, 0); stroke-width: 4px;"/>
        <path d="M163,169.52h39.12c3.606,0,6.52-2.914,6.52-6.52V97.8c0-3.606-2.914-6.52-6.52-6.52H163c-3.606,0-6.52,2.914-6.52,6.52 V163C156.48,166.606,159.394,169.52,163,169.52z M169.52,104.32h26.08v52.16h-26.08V104.32z" style="fill: rgb(82, 29, 12);stroke: rgb(0, 0, 0); stroke-width: 4px;"/>
        <path d="M 221.68 163 C 221.68 166.606 273.84 166.606 273.84 163 L 273.84 97.8 C 273.84 94.194 270.926 91.28 267.32 91.28 L 228.2 91.28 C 224.594 91.28 221.68 94.194 221.68 97.8 L 221.68 163 Z M 234.72 104.32 L 260.8 104.32 L 260.8 156.48 L 234.72 156.48 L 234.72 104.32 Z" style="fill: rgb(82, 29, 12);stroke: rgb(0, 0, 0); stroke-width: 4px;"/>
        <rect x="52.217" y="91.38" width="52.535" height="23.88" style="stroke: rgb(250, 221, 120); fill: rgb(212, 208, 135);" transform="matrix(0, 1, -1, 0, 155.391785, 51.871346)"/>
        <rect x="52.217" y="91.38" width="52.535" height="23.88" style="stroke: rgb(250, 221, 120); fill: rgb(212, 208, 135);" transform="matrix(0, 1, -1, 0, 221.140961, 51.394047)"/>
        <rect x="52.217" y="91.38" width="52.535" height="23.88" style="stroke: rgb(250, 221, 120); fill: rgb(212, 208, 135);" transform="matrix(0, 1, -1, 0, 286.624573, 51.712448)"/>
        <rect x="52.217" y="91.38" width="52.535" height="23.88" style="stroke: rgb(250, 221, 120); fill: rgb(212, 208, 135);" transform="matrix(0, 1, -1, 0, 351.542145, 51.712448)"/>
      </g>
    </g>
  </g>
</svg>