<?xml version="1.0" encoding="utf-8"?>
<svg version="1.0" xmlns="http://www.w3.org/2000/svg" width="82.000000pt" height="82.000000pt" viewBox="0 0 82.000000 82.000000" preserveAspectRatio="xMidYMid meet" xmlns:bx="https://boxy-svg.com"><defs><bx:export><bx:file format="svg" units="pt"/><bx:file format="svg" href="#object-0" path="Untitled 2.svg" units="pt"/></bx:export></defs><g transform="translate(0.000000,82.000000) scale(0.100000,-0.100000)" fill="#ff7400" stroke="none" id="object-0"><path d="M305 630 l-70 -70 -62 0 c-85 0 -110 -12 -133 -62 -26 -57 -25 -114 2 -168 l23 -45 83 -5 82 -5 79 -72 c44 -40 84 -73 90 -73 26 0 31 48 31 289 0 137 -3 256 -6 265 -12 32 -49 14 -119 -54z" style="stroke-width: 10px; stroke: rgb(5, 0, 89); fill: rgba(148, 129, 107, 0.184);"/></g><polyline style="fill: none; stroke-width: 2px; stroke: rgb(218, 21, 21);" points="50.638 22.642 71.291 52.933 46.049 45.437 73.586 24.631"/></svg>