<?xml version="1.0" encoding="utf-8"?>
<svg version="1.0" xmlns="http://www.w3.org/2000/svg" width="82.000000pt" height="82.000000pt" viewBox="0 0 82.000000 82.000000" preserveAspectRatio="xMidYMid meet" xmlns:bx="https://boxy-svg.com"><defs><bx:export><bx:file format="svg" units="pt"/></bx:export></defs><g transform="translate(0.000000,82.000000) scale(0.100000,-0.100000)" fill="#ff7400" stroke="none"><path d="M305 630 l-70 -70 -62 0 c-85 0 -110 -12 -133 -62 -26 -57 -25 -114 2 -168 l23 -45 83 -5 82 -5 79 -72 c44 -40 84 -73 90 -73 26 0 31 48 31 289 0 137 -3 256 -6 265 -12 32 -49 14 -119 -54z" style="stroke-width: 10px; stroke: rgb(5, 0, 89);"/></g><g transform="translate(0.000000,82.000000) scale(0.100000,-0.100000)" fill="#ffa700" stroke="none"><path d="M643 654 c-3 -10 7 -29 30 -52 48 -51 68 -95 74 -162 7 -76 -16 -145 -69 -205 -38 -43 -40 -48 -25 -63 16 -15 19 -14 52 18 20 19 48 60 63 90 23 46 27 68 27 135 -1 94 -25 159 -83 218 -39 40 -59 46 -69 21z" style="fill: rgb(255, 222, 26); stroke-width: 10px; stroke: rgb(5, 0, 89);"/></g><g transform="translate(0.000000,82.000000) scale(0.100000,-0.100000)" fill="#ffce00" stroke="none"><path d="M584 575 c-3 -7 6 -30 21 -48 14 -19 30 -50 36 -68 13 -46 -5 -120 -37 -150 -25 -24 -31 -53 -13 -65 15 -9 67 44 86 86 32 74 13 181 -41 235 -28 28 -44 32 -52 10z" style="stroke-width: 10px; stroke: rgb(5, 0, 89);"/></g><g transform="translate(0.000000,82.000000) scale(0.100000,-0.100000)" fill="#ffde1a" stroke="none"><path d="M514 499 c-3 -6 2 -26 12 -45 18 -33 18 -36 1 -65 -22 -40 -22 -59 2 -59 27 0 61 47 61 84 0 55 -56 117 -76 85z" style="fill: rgb(255, 167, 0); stroke-width: 10px; stroke: rgb(5, 0, 89);"/></g></svg>