<svg width="581.342" height="553.562" xmlns="http://www.w3.org/2000/svg"><defs><clipPath clipPathUnits="userSpaceOnUse" id="a"><path d="M0 3318h3318V0H0z" transform="translate(-2959.708 -977)"/></clipPath><clipPath clipPathUnits="userSpaceOnUse" id="b"><path d="M0 3318h3318V0H0z" transform="translate(-2885.606 -864.427)"/></clipPath><clipPath clipPathUnits="userSpaceOnUse" id="c"><path d="M0 3318h3318V0H0z" transform="translate(-2776.16 -1014)"/></clipPath><clipPath clipPathUnits="userSpaceOnUse" id="d"><path d="M0 3318h3318V0H0z" transform="translate(-2718.958 -811.06)"/></clipPath><clipPath clipPathUnits="userSpaceOnUse" id="e"><path d="M0 3318h3318V0H0z" transform="translate(-2631.958 -868.06)"/></clipPath><clipPath clipPathUnits="userSpaceOnUse" id="f"><path d="M0 3318h3318V0H0z" transform="translate(-2770.958 -868.06)"/></clipPath><clipPath clipPathUnits="userSpaceOnUse" id="g"><path d="M0 3318h3318V0H0z" transform="translate(-2813.958 -829.898)"/></clipPath><clipPath clipPathUnits="userSpaceOnUse" id="h"><path d="M0 3318h3318V0H0z" transform="translate(-2664.958 -831.898)"/></clipPath><clipPath clipPathUnits="userSpaceOnUse" id="i"><path d="M0 3318h3318V0H0z" transform="translate(-2846.775 -1013)"/></clipPath></defs><path d="M0 0h-317.708c-5.522 0-10 4.478-10 10s4.478 10 10 10H0c8.891 0 16.401 7.608 16.401 16.614 0 9.161-7.232 16.615-16.123 16.615-8.813 0-15.984-7.401-15.984-16.497 0-5.522-4.478-10-10-10-5.523 0-10 4.478-10 10 0 20.124 16.143 36.497 35.984 36.497 19.918 0 36.123-16.425 36.123-36.615C36.401 16.425 20.072 0 0 0" style="fill:#8fe3ff;fill-opacity:1;fill-rule:nonzero;stroke:none" transform="matrix(1.33333 0 0 -1.33333 532.808 332.31)" clip-path="url(#a)"/><path d="M0 0c-12.147 0-23.502 4.725-31.971 13.303-8.414 8.523-13.048 19.903-13.048 32.043 0 5.522 4.478 10 10 10 5.523 0 10-4.478 10-10C-25.019 31.133-14.029 20 0 20c14.154 0 25.242 11.107 25.242 25.286 0 13.943-11.523 25.287-25.687 25.287h-268.16c-5.523 0-10 4.478-10 10 0 5.523 4.477 10 10 10H-.445c25.192 0 45.687-20.315 45.687-45.287C45.242 20.315 24.946 0 0 0" style="fill:#8fe3ff;fill-opacity:1;fill-rule:nonzero;stroke:none" transform="matrix(1.33333 0 0 -1.33333 434.004 482.407)" clip-path="url(#b)"/><path d="M0 0h-108.16c-5.523 0-10 4.478-10 10s4.477 10 10 10H0c14.164 0 25.687 11.415 25.687 25.446 0 14.032-11.323 25.448-25.242 25.448-14.029 0-25.018-11.181-25.018-25.454 0-5.522-4.478-10-10-10-5.523 0-10 4.478-10 10 0 25.063 20.195 45.454 45.018 45.454 24.947 0 45.243-20.388 45.243-45.448C45.688 20.387 25.192 0 0 0" style="fill:#8fe3ff;fill-opacity:1;fill-rule:nonzero;stroke:none" transform="matrix(1.33333 0 0 -1.33333 288.077 282.976)" clip-path="url(#c)"/><path d="M0 0a9.964 9.964 0 0 0-7.074 2.933c-3.904 3.907-3.901 10.239.007 14.141l25.042 25.017c3.907 3.903 10.24 3.9 14.141-.007 3.904-3.907 3.901-10.239-.007-14.142L7.067 2.926A9.968 9.968 0 0 0 0 0" style="fill:#8888ff;fill-opacity:1;fill-rule:nonzero;stroke:none" transform="matrix(1.33333 0 0 -1.33333 211.808 553.562)" clip-path="url(#d)"/><path d="M0 0a9.966 9.966 0 0 0-7.074 2.933c-3.904 3.907-3.901 10.238.007 14.141L8.725 32.851c3.907 3.903 10.238 3.9 14.141-.007 3.904-3.907 3.901-10.239-.007-14.142L7.067 2.926A9.968 9.968 0 0 0 0 0" style="fill:#8888ff;fill-opacity:1;fill-rule:nonzero;stroke:none" transform="matrix(1.33333 0 0 -1.33333 95.808 477.562)" clip-path="url(#e)"/><path d="M0 0a9.966 9.966 0 0 0-7.074 2.933c-3.904 3.907-3.901 10.238.007 14.141L8.725 32.851c3.907 3.903 10.238 3.9 14.141-.007 3.904-3.907 3.901-10.239-.007-14.142L7.067 2.926A9.968 9.968 0 0 0 0 0" style="fill:#8888ff;fill-opacity:1;fill-rule:nonzero;stroke:none" transform="matrix(1.33333 0 0 -1.33333 281.141 477.562)" clip-path="url(#f)"/><path d="M0 0a9.97 9.97 0 0 0-7.081 2.938c-3.899 3.912-3.891 10.243.019 14.143l18.993 18.94c3.911 3.899 10.241 3.891 14.142-.02 3.9-3.911 3.891-10.242-.019-14.143L7.062 2.919A9.973 9.973 0 0 0 0 0" style="fill:#8888ff;fill-opacity:1;fill-rule:nonzero;stroke:none" transform="matrix(1.33333 0 0 -1.33333 338.474 528.446)" clip-path="url(#g)"/><path d="M0 0a9.964 9.964 0 0 0-7.074 2.933c-3.904 3.907-3.901 10.238.007 14.141l51.992 51.94c3.907 3.903 10.24 3.9 14.141-.007 3.904-3.907 3.901-10.238-.006-14.142L7.067 2.926A9.968 9.968 0 0 0 0 0" style="fill:#8888ff;fill-opacity:1;fill-rule:nonzero;stroke:none" transform="matrix(1.33333 0 0 -1.33333 139.808 525.78)" clip-path="url(#h)"/><path d="M0 0h-9.775c-5.523 0-10 4.478-10 10s4.477 10 10 10h9.602c25.17.912 44.862 20.812 44.862 45.37 0 24.986-20.295 45.314-45.242 45.314-1.283 0-2.294-.029-3.18-.09a9.962 9.962 0 0 0-7.277 2.449 10 10 0 0 0-3.395 6.886c-2.637 41.105-36.994 73.303-78.218 73.303-27.648 0-52.725-14.128-67.079-37.794a10.005 10.005 0 0 0-7.365-4.744 10.017 10.017 0 0 0-8.275 2.878c-4.66 4.685-10.858 7.265-17.455 7.265-13.574 0-24.618-11.043-24.618-24.616 0-3.871.879-7.583 2.612-11.033a10 10 0 0 0-8.54-14.483c-24.297-.959-43.33-20.81-43.33-45.193 0-24.857 20.201-45.212 45.032-45.375l8.63-.005c5.523-.003 9.997-4.483 9.994-10.006-.003-5.521-4.479-9.994-10-9.994h-.005l-8.691.005c-35.846.236-64.96 29.563-64.96 65.375 0 30.79 21.062 56.569 49.845 63.436a44.888 44.888 0 0 0-.587 7.273c0 24.601 20.016 44.616 44.618 44.616 7.929 0 15.538-2.054 22.227-5.912 18.55 24.172 46.96 38.307 77.947 38.307 48.597 0 89.592-35.657 97.139-82.744C38.13 127.89 64.689 99.676 64.689 65.37 64.689 29.91 36.42 1.198.33.006A9.04 9.04 0 0 0 0 0" style="fill:#fff;fill-opacity:1;fill-rule:nonzero;stroke:none" transform="matrix(1.33333 0 0 -1.33333 382.23 284.31)" clip-path="url(#i)"/></svg>
