<svg width="467.166" height="329.145" xmlns="http://www.w3.org/2000/svg"><defs><clipPath clipPathUnits="userSpaceOnUse" id="a"><path d="M0 3318h3318V0H0z" transform="translate(-2335 -1606)"/></clipPath><clipPath clipPathUnits="userSpaceOnUse" id="b"><path d="M0 3318h3318V0H0z" transform="translate(-2386 -1649)"/></clipPath><clipPath clipPathUnits="userSpaceOnUse" id="c"><path d="M0 3318h3318V0H0z" transform="translate(-2114.364 -1494.177)"/></clipPath></defs><path d="M0 0h-253.082c-19.672 0-36.292 16.939-36.292 36.989 0 20.396 16.254 36.99 36.232 36.99 19.963 0 36.204-16.485 36.204-36.747 0-5.523-4.478-10-10-10-5.523 0-10 4.477-10 10 0 9.078-7.42 16.747-16.204 16.747-8.798 0-16.232-7.78-16.232-16.99 0-9.209 7.461-16.989 16.292-16.989H0c5.522 0 10-4.477 10-10S5.522 0 0 0" style="fill:#8fe3ff;fill-opacity:1;fill-rule:nonzero;stroke:none" transform="matrix(1.33333 0 0 -1.33333 385.832 180.047)" clip-path="url(#a)"/><path d="M0 0h-204.862c-25.126 0-45.568 20.643-45.568 46.017 0 25.374 20.349 46.018 45.361 46.018 24.955 0 45.257-20.561 45.257-45.833 0-5.523-4.478-10-10-10-5.523 0-10 4.477-10 10 0 14.244-11.331 25.833-25.257 25.833-13.984 0-25.361-11.672-25.361-26.018 0-14.102 11.708-26.017 25.568-26.017H0c5.522 0 10-4.477 10-10S5.522 0 0 0" style="fill:#8fe3ff;fill-opacity:1;fill-rule:nonzero;stroke:none" transform="matrix(1.33333 0 0 -1.33333 453.832 122.713)" clip-path="url(#b)"/><path d="M0 0c-12.139 0-23.521 4.606-32.053 12.971-8.615 8.446-13.36 19.79-13.36 31.94 0 24.765 20.418 44.912 45.515 44.912h249.534c5.522 0 10-4.477 10-10 0-5.522-4.478-10-10-10H.102c-14.308 0-25.515-10.942-25.515-24.912C-25.413 30.942-14.25 20 0 20c14.222 0 25.362 11.023 25.362 25.096 0 5.522 4.478 10 10 10 5.523 0 10-4.478 10-10C45.362 20.229 25.013 0 0 0" style="fill:#8fe3ff;fill-opacity:1;fill-rule:nonzero;stroke:none" transform="matrix(1.33333 0 0 -1.33333 91.651 329.144)" clip-path="url(#c)"/></svg>
